<svg version="1.1" id="Layer_1" xmlns="http://www.w3.org/2000/svg" xmlns:xlink="http://www.w3.org/1999/xlink" x="0px" y="0px"
	 width="100%" viewBox="0 0 736 736" enable-background="new 0 0 736 736" xml:space="preserve">
<path fill="#000000" opacity="1.000000" stroke="none" 
	d="
M513.355713,390.265259 
	C508.678619,395.608887 503.465118,398.852081 496.666016,400.618958 
	C493.419189,401.462738 489.249908,404.086273 487.422638,408.484772 
	C485.422272,413.299896 484.382568,418.068634 485.840851,423.048401 
	C487.169159,427.584290 492.414337,429.091370 496.453156,426.395599 
	C499.626465,424.277527 501.192902,420.866943 503.231628,417.844910 
	C508.427826,410.142609 514.811035,409.130463 522.323608,414.660309 
	C529.097229,419.646210 535.970459,424.536224 537.133911,433.776428 
	C537.957520,440.317810 537.193909,446.820709 535.064819,452.997284 
	C530.252625,466.957672 529.592285,481.206116 531.112183,495.731873 
	C531.526733,499.693573 531.200562,503.727081 531.385132,507.719757 
	C531.721130,514.986145 537.017090,518.811157 543.937195,516.829285 
	C549.807312,515.148071 555.253540,512.006470 561.754456,512.606323 
	C568.085938,513.190552 572.931702,515.830627 573.239258,519.546631 
	C573.563416,523.462524 569.126282,527.821350 563.414551,529.416382 
	C561.512146,529.947693 559.599243,530.673523 557.904663,531.672668 
	C552.917603,534.612915 551.950439,539.102478 555.064392,543.976746 
	C558.351074,549.121460 563.518982,551.874939 568.658875,554.661072 
	C574.592651,557.877563 579.108704,562.146301 578.248657,569.572571 
	C577.281372,577.924500 572.449585,584.705078 568.305298,591.665527 
	C566.961487,593.922546 564.265625,593.494812 562.020203,592.085999 
	C558.895935,590.125854 557.096985,587.181030 555.788696,583.871094 
	C554.742004,581.223145 553.617920,578.608643 551.665588,576.497620 
	C549.480286,574.134766 546.955872,572.843811 543.663696,574.392151 
	C539.181641,576.500061 535.268982,575.705200 531.967224,571.958984 
	C526.869568,566.175232 520.900574,565.240601 513.965637,568.478149 
	C505.288239,572.529114 496.062622,574.485229 486.550720,575.451599 
	C476.302277,576.492737 469.264587,582.548828 463.966461,590.928772 
	C457.647003,600.924133 454.421570,612.133240 451.595551,623.452209 
	C449.947388,630.053345 448.770721,636.770813 447.273895,643.411560 
	C446.108124,648.583740 442.148315,651.707275 437.383636,649.937256 
	C428.642090,646.689941 420.526367,648.027893 412.264557,651.198914 
	C405.931061,653.629822 399.451477,652.912415 394.055237,649.297607 
	C383.752350,642.396057 372.775421,641.839355 361.064636,643.546204 
	C349.239441,645.269714 340.779602,637.878662 340.792389,626.012817 
	C340.796539,622.175354 339.199097,619.201538 337.189148,616.400574 
	C325.228058,599.732056 309.480286,588.837830 289.049286,585.109619 
	C280.877319,583.618408 272.723755,581.988403 264.627045,580.136475 
	C259.382690,578.936951 254.556396,576.678589 250.693314,572.722168 
	C248.650711,570.630249 247.259796,568.194885 246.832962,565.314331 
	C246.221649,561.188599 248.116638,559.233582 252.207291,559.862305 
	C256.033020,560.450439 259.584503,561.917480 262.848511,563.995361 
	C266.269745,566.173279 269.999939,567.728394 273.921021,568.428223 
	C277.872894,569.133606 281.802307,568.269104 283.865143,564.379333 
	C285.809845,560.712341 284.662231,557.256836 281.775360,554.392517 
	C272.939636,545.625610 262.664215,538.841309 251.699554,533.129700 
	C247.385269,530.882385 243.331436,528.334961 239.447388,525.469727 
	C233.318695,520.948608 232.884369,515.373840 238.172485,509.925171 
	C244.228790,503.685120 243.221451,497.381195 235.256897,493.094025 
	C228.937790,489.692627 223.007141,486.167328 222.300278,477.975220 
	C221.699631,471.014130 223.956390,465.113281 229.153824,460.624023 
	C234.359283,456.127838 240.439468,456.857849 246.072052,459.583130 
	C250.841019,461.890564 255.109100,465.210358 259.736176,467.840485 
	C264.225067,470.392120 268.774719,472.926880 274.298584,470.513306 
	C279.973969,468.033569 282.029633,462.883667 279.113464,457.503601 
	C276.888397,453.398529 274.069550,449.686279 271.291290,445.926849 
	C264.873260,437.242279 256.397034,434.877472 246.158463,436.695129 
	C241.066818,437.599060 235.897720,437.984619 230.840988,436.217102 
	C227.493622,435.047119 225.635727,432.848145 225.604401,429.164551 
	C225.572388,425.400848 227.500671,423.241608 230.959671,422.339630 
	C233.692215,421.627045 236.505127,421.217163 239.227417,420.472107 
	C243.410324,419.327393 244.175598,417.245178 242.094193,413.440674 
	C240.167923,409.919739 236.640533,408.698334 233.303589,407.240662 
	C230.550781,406.038239 227.775635,404.933990 225.436111,402.965576 
	C222.674194,400.641693 222.202408,397.599548 222.812057,394.338470 
	C223.397278,391.208160 225.971909,390.170746 228.685440,389.740082 
	C231.797379,389.246185 234.955246,388.966614 238.104019,388.801514 
	C241.070877,388.645966 243.302383,387.574188 244.216095,384.618988 
	C245.074936,381.841309 243.577271,379.752777 241.754181,377.987427 
	C240.701736,376.968353 239.354156,376.135773 237.992737,375.575928 
	C233.622971,373.779053 231.708939,370.401337 231.228363,365.909332 
	C230.551498,359.582642 232.173462,358.067963 238.230453,359.493164 
	C247.583878,361.693970 251.694565,357.897430 249.986389,348.635681 
	C248.435532,340.226898 252.334167,333.550690 261.638031,329.537567 
	C264.489655,328.307556 265.796417,326.884521 265.800385,323.701843 
	C265.805603,319.498627 267.134186,315.451447 269.011322,311.729218 
	C272.610107,304.593140 276.320404,297.502594 280.285278,290.565125 
	C283.668365,284.645599 290.429321,282.014435 297.494568,283.002655 
	C302.545258,283.709137 307.585022,284.955414 312.773529,283.846954 
	C315.319000,283.303131 317.402191,282.202728 319.192352,280.296722 
	C326.228638,272.805084 333.622620,274.376312 337.442413,283.996124 
	C338.123413,285.711182 337.715668,288.112762 340.230499,289.135773 
	C342.429840,288.013763 342.128479,285.469147 343.101776,283.689331 
	C346.455017,277.557434 351.221313,272.680664 356.745026,268.622528 
	C365.466583,262.214935 373.710785,265.669403 375.620056,276.278442 
	C376.685791,282.200073 380.109680,283.673553 385.036346,280.126923 
	C388.734589,277.464630 391.410461,273.814362 393.805145,269.975067 
	C396.119080,266.265320 398.962555,263.081024 403.782349,263.924286 
	C408.696777,264.784088 410.178589,268.871063 410.797882,273.166718 
	C411.889191,280.735870 411.388519,288.406433 412.188110,296.027802 
	C412.977020,303.547516 413.844360,304.821014 421.610687,304.714722 
	C427.954712,304.627899 434.172150,303.450928 440.376831,302.380829 
	C445.282501,301.534729 448.519196,298.322021 450.646576,293.755066 
	C452.477539,289.824402 454.686401,286.037109 459.285858,284.582703 
	C464.015930,283.087006 467.029144,285.452179 466.189789,290.318115 
	C465.307892,295.430603 463.371368,300.185791 460.873932,304.769836 
	C457.546539,310.877289 453.776093,316.845612 454.232330,324.337708 
	C454.427277,327.538818 455.453705,330.170746 457.578491,332.418030 
	C460.542267,335.552643 463.511169,338.540070 464.924255,342.895386 
	C465.991882,346.185822 470.592499,346.917267 474.978180,344.869324 
	C479.042267,342.971497 481.889282,339.680908 484.160339,335.931702 
	C486.834473,331.517059 489.277313,326.962830 491.920563,322.528839 
	C493.285065,320.239929 494.858002,318.085083 497.068054,316.475159 
	C500.014252,314.328918 503.308716,313.703827 506.463135,315.396240 
	C509.484619,317.017395 510.638855,320.054047 510.295776,323.495941 
	C510.148346,324.975037 509.791168,326.435059 509.497223,327.897308 
	C508.855652,331.089203 509.415833,333.313385 513.402283,332.776520 
	C515.487793,332.495667 517.388489,333.044281 519.137878,334.092499 
	C522.036255,335.829193 522.969482,338.069275 520.952698,341.167297 
	C519.828186,342.894745 518.366699,344.149689 516.705505,345.309357 
	C509.195251,350.552399 501.697968,355.815247 494.259155,361.158844 
	C489.365631,364.674072 487.133850,377.555786 490.589020,382.500122 
	C493.062195,386.039185 496.436768,386.016235 499.852081,384.052216 
	C503.041321,382.218170 504.672943,379.189392 505.852203,375.750519 
	C507.406036,371.219421 508.547852,366.376526 512.847351,363.366058 
	C516.293457,360.953033 518.726379,361.710388 519.103821,365.853973 
	C519.884399,374.422974 519.541199,382.884888 513.355713,390.265259 
M411.575714,572.192932 
	C409.674988,570.914795 408.864685,568.897034 407.972534,566.924255 
	C404.508728,559.264954 399.091125,556.776550 391.511780,559.629578 
	C389.383087,560.430969 387.564514,562.024536 385.537445,563.133606 
	C380.764008,565.745300 379.971680,567.718628 382.936035,572.202515 
	C385.964752,576.783813 386.703735,581.688660 386.268494,586.930542 
	C386.077240,589.234253 385.550385,591.511292 385.381073,593.815491 
	C385.025330,598.656921 387.362427,601.397278 392.194550,601.751892 
	C395.660400,602.006348 398.123474,603.415588 399.616516,606.661438 
	C400.296509,608.139709 401.312286,609.559692 402.479401,610.693604 
	C403.975494,612.147156 405.506927,614.042358 408.052643,613.096802 
	C410.603119,612.149475 412.047943,610.155029 412.548309,607.552551 
	C412.796509,606.261597 412.734680,604.904358 412.749023,603.576355 
	C412.869507,592.438110 413.679962,591.372986 424.255707,588.545715 
	C428.184021,587.495483 431.274902,582.943970 430.525726,578.980591 
	C429.699829,574.611389 426.768280,573.050964 422.512756,573.348816 
	C419.065887,573.590027 415.557892,574.299805 411.575714,572.192932 
M305.114258,444.364929 
	C309.012268,446.230530 312.863190,448.138428 317.211212,448.895355 
	C325.302155,450.303833 330.688812,446.146729 330.628143,437.937439 
	C330.559845,428.696625 327.511322,419.977509 325.033081,411.224976 
	C323.735809,406.643372 319.717590,404.568512 314.988678,404.344177 
	C311.999237,404.202362 308.987823,404.446655 306.006042,404.236877 
	C299.862274,403.804596 297.383179,405.331451 295.174561,411.034363 
	C293.390289,415.641541 293.897217,420.539368 293.144531,425.238556 
	C291.575500,435.034088 295.792419,440.707092 305.114258,444.364929 
M397.447083,518.412476 
	C395.693909,513.936340 393.781952,509.592102 393.394501,504.614960 
	C393.047546,500.158539 390.256500,496.812866 385.726044,495.773773 
	C381.715302,494.853882 379.294067,497.759552 377.003998,500.429993 
	C375.594757,502.073242 374.392273,503.926575 372.443604,504.988892 
	C365.960938,508.523132 367.339050,515.945801 364.420410,521.243713 
	C364.129944,521.770935 364.537842,522.980591 365.002197,523.577454 
	C367.961212,527.380798 370.674133,531.276794 372.551514,535.790283 
	C373.400818,537.832153 375.847168,537.814148 377.881439,537.678406 
	C381.771240,537.418884 385.465210,538.108459 389.113556,539.467224 
	C394.830383,541.596375 399.205322,538.263428 398.272736,532.199890 
	C397.606873,527.870667 398.002808,523.557007 397.447083,518.412476 
M435.165192,513.225098 
	C428.015076,513.053467 421.857697,515.813171 416.140167,519.767273 
	C411.912201,522.691101 410.426422,527.033264 410.512085,531.920776 
	C410.567169,535.066528 411.053192,538.207886 411.405579,541.344482 
	C411.988922,546.537231 415.647064,551.530518 420.171265,552.431396 
	C425.929901,553.578125 431.504333,553.019287 435.911377,548.451782 
	C436.977325,547.347046 437.671906,545.920654 437.577789,544.380676 
	C437.213531,538.419861 439.591248,533.526794 442.646606,528.553101 
	C446.290100,522.622070 442.704529,515.090332 435.165192,513.225098 
M343.248413,544.479492 
	C333.746765,551.747375 333.255341,553.796570 338.275726,564.893433 
	C339.097382,566.709473 339.769928,568.592957 340.588715,570.410461 
	C343.195251,576.196167 354.284393,580.849121 360.186829,578.553955 
	C361.206635,578.157471 362.272461,577.337402 362.842377,576.418579 
	C365.464630,572.190918 368.540405,568.217163 370.392853,563.541931 
	C372.871765,557.285583 371.555664,552.157471 366.134979,548.106384 
	C359.446411,543.107727 351.935425,542.076904 343.248413,544.479492 
M266.099731,504.459564 
	C268.495819,508.913116 270.932465,513.312500 276.669403,514.123657 
	C280.442078,514.657104 284.195251,515.369141 287.982391,515.749756 
	C292.800842,516.234070 296.949554,515.246277 298.854370,509.992523 
	C300.462769,505.556213 299.193298,500.347107 295.086975,496.980103 
	C291.620178,494.137512 287.890656,491.605438 284.198242,489.050385 
	C279.240021,485.619385 273.976593,482.813843 267.949707,481.716034 
	C263.733063,480.947906 257.603790,483.273621 256.128113,486.449188 
	C254.183960,490.632904 257.139038,493.404236 259.448730,496.130280 
	C261.594879,498.663300 264.099274,500.891632 266.099731,504.459564 
M396.491241,428.229858 
	C395.708832,433.633667 397.541229,438.442200 400.123718,442.973083 
	C402.417603,446.997650 406.114838,447.667938 409.809021,444.954651 
	C412.296936,443.127350 414.354340,440.803131 414.545929,437.631989 
	C414.760040,434.088043 416.409180,431.829803 419.299377,429.982269 
	C422.123962,428.176636 423.777313,425.332306 423.583405,421.962067 
	C423.269440,416.504669 422.947327,410.997437 421.928528,405.644501 
	C420.818573,399.812683 416.797180,396.334412 412.801208,396.719818 
	C407.127045,397.267090 402.346741,401.323151 402.560577,407.102539 
	C402.842896,414.732178 401.440247,421.477875 396.491241,428.229858 
M412.938232,497.494843 
	C413.732086,500.524139 414.652588,503.598755 418.774170,502.658447 
	C427.747437,500.611206 434.159668,491.243073 433.103180,481.876556 
	C432.635284,477.728638 432.139130,473.702942 434.763611,469.887085 
	C436.246368,467.731232 435.888641,465.149902 434.775818,462.725098 
	C431.923492,456.509857 419.728668,455.786438 414.638885,461.894318 
	C411.885254,465.198761 406.977905,468.563049 408.816193,473.280884 
	C411.808868,480.961517 410.354004,489.110596 412.938232,497.494843 
M383.236816,362.015747 
	C372.437805,365.685822 371.155090,367.796387 372.916077,379.214630 
	C373.327881,381.884888 373.164032,384.505981 372.754272,387.157654 
	C371.578308,394.767273 374.929352,401.367584 381.729584,405.000671 
	C387.181549,407.913452 392.149292,405.553040 391.389343,399.542328 
	C390.551880,392.918427 392.152802,387.110229 394.075195,381.133972 
	C394.552887,379.649017 394.617493,378.158569 394.048035,376.728546 
	C391.641235,370.684540 390.899048,364.939667 396.685303,360.207306 
	C396.919464,360.015839 396.998169,359.627197 397.133881,359.323486 
	C398.356873,356.586487 397.620209,354.414734 395.083496,352.948669 
	C392.587616,351.506287 391.033752,353.071259 389.677490,354.925507 
	C387.924408,357.322174 386.738953,360.200256 383.236816,362.015747 
M320.296753,505.737061 
	C316.725372,507.682617 312.943878,510.265442 316.168823,514.544067 
	C320.036743,519.675720 321.319336,525.101318 321.481964,531.233459 
	C321.553253,533.921875 322.778717,536.507507 325.608093,537.550232 
	C328.759460,538.711609 330.547791,536.548584 332.214996,534.382935 
	C335.718964,529.831299 339.986969,526.773376 346.035156,526.668762 
	C350.567169,526.590393 352.068024,523.723145 351.635956,519.617432 
	C350.303619,506.956116 339.050018,499.430206 327.048035,503.165405 
	C324.992218,503.805237 323.006744,504.671143 320.296753,505.737061 
M380.318939,422.153870 
	C372.625336,416.630524 369.954468,416.917969 363.440430,424.060089 
	C362.080261,425.551422 360.632751,426.735229 358.670197,427.484619 
	C351.259552,430.314209 350.056396,437.484528 356.504578,442.329346 
	C362.997681,447.207977 369.939514,451.504669 376.807526,455.862854 
	C380.349823,458.110626 382.845367,456.419922 384.223114,452.916321 
	C385.156342,450.542999 385.095551,448.023468 384.292175,445.582245 
	C383.477783,443.107819 383.501038,440.665009 384.532410,438.285065 
	C387.195374,432.140259 385.839844,426.964600 380.318939,422.153870 
M308.497009,303.282410 
	C300.124969,295.649811 292.329041,297.435364 288.515930,307.842224 
	C287.605072,310.328064 286.802551,312.877441 285.632935,315.240631 
	C279.705292,327.217133 279.668671,327.199005 288.925568,336.579163 
	C293.167572,340.877655 295.850159,340.670624 300.254944,336.336060 
	C304.544556,332.114868 304.860413,326.196655 307.369720,321.317841 
	C310.400024,315.425995 310.029083,309.923462 308.497009,303.282410 
M345.851715,457.566406 
	C338.076569,456.933502 333.878479,461.670807 335.633850,469.647034 
	C336.916718,475.476288 338.372040,481.183563 338.536102,487.247009 
	C338.694946,493.117035 342.857483,496.207794 348.628326,495.407349 
	C350.929169,495.088226 352.880402,495.299530 354.727295,496.696259 
	C356.472870,498.016388 358.376434,498.440063 360.229431,497.007080 
	C362.112274,495.551056 362.061218,493.405884 361.293610,491.536591 
	C359.256378,486.575226 359.750854,481.415283 359.692749,476.285400 
	C359.568817,465.343231 356.885162,461.558228 345.851715,457.566406 
M431.402008,426.602661 
	C431.113831,428.589142 431.996918,430.087372 433.224518,431.571075 
	C437.080444,436.231720 442.142395,436.660370 447.338135,435.147125 
	C453.037079,433.487366 455.938141,429.034027 456.578705,423.291504 
	C457.023743,419.301575 457.516418,415.352295 458.964447,411.599365 
	C460.774200,406.908783 458.627045,403.796967 454.818237,401.633362 
	C451.591492,399.800446 447.957947,399.148132 444.205750,399.362640 
	C439.329590,399.641479 436.168091,401.624664 435.225281,406.892822 
	C434.092224,413.223816 434.859497,419.949066 431.402008,426.602661 
M343.218719,408.275452 
	C345.228302,410.714722 347.130219,413.253601 349.272888,415.569763 
	C352.443634,418.997223 355.998535,418.313232 357.910156,414.063141 
	C359.610809,410.282043 358.294067,406.768036 356.513336,403.575958 
	C353.571899,398.303131 352.128418,392.778290 352.712677,386.802643 
	C353.581024,377.921722 348.444275,372.423309 341.963837,367.876709 
	C337.667114,364.862152 334.765564,366.573212 334.306488,371.865540 
	C333.826447,377.399567 334.542938,382.888489 335.634430,388.228973 
	C337.024994,395.032928 335.917816,402.884338 343.218719,408.275452 
M458.573303,510.997620 
	C461.563446,513.878784 464.061829,513.430603 466.363373,510.042328 
	C467.178162,508.842834 468.300537,507.384247 469.559479,507.030914 
	C477.497498,504.802948 479.240173,498.205231 481.071716,491.519379 
	C482.260315,487.180481 482.296997,483.203522 478.201294,480.356659 
	C474.142639,477.535522 469.562958,477.241760 465.494354,479.746674 
	C461.281769,482.340179 457.418457,485.610718 453.788696,488.999023 
	C451.704407,490.944641 448.790527,494.073181 451.385956,496.736969 
	C455.262024,500.715118 455.363800,506.131653 458.573303,510.997620 
M320.247345,379.674744 
	C320.655731,378.770386 321.400665,377.873413 321.420715,376.960510 
	C321.631683,367.363464 321.143921,357.806427 319.188873,348.379272 
	C318.996185,347.450134 318.318573,346.594574 317.766083,345.772003 
	C315.905518,343.001923 313.228333,341.901581 310.009521,342.476532 
	C306.551514,343.094269 303.592255,344.766998 302.700562,348.378021 
	C302.158234,350.574036 302.018066,353.085938 302.504364,355.276794 
	C303.733093,360.812408 302.626495,366.175568 301.800781,371.544434 
	C301.469971,373.695404 301.592407,375.457916 302.918030,377.128357 
	C305.869965,380.848114 315.250427,382.614655 320.247345,379.674744 
M278.261658,377.270477 
	C275.886444,376.071289 273.595490,374.643494 271.115265,373.729126 
	C267.800842,372.507172 265.117432,373.517242 264.025848,377.092834 
	C262.660065,381.566650 262.004944,386.172913 262.263763,390.867310 
	C262.352692,392.480347 263.127472,393.866882 264.667236,394.379517 
	C269.573822,396.013123 272.439453,399.716309 275.250366,403.782684 
	C279.075897,409.316956 282.987122,408.838593 286.139709,402.832458 
	C292.675262,390.381378 290.953735,384.360657 278.261658,377.270477 
M496.522400,537.947510 
	C497.636108,535.017151 497.792725,531.678589 499.786041,529.141663 
	C502.832977,525.263733 501.104340,522.399048 498.098755,519.738281 
	C493.611420,515.765625 489.113190,515.518494 484.088593,518.915894 
	C480.698547,521.208130 478.153625,524.291626 476.592102,528.015808 
	C474.352112,533.358276 472.391998,538.818909 470.354431,544.244934 
	C469.597351,546.261047 468.520844,548.557739 470.770874,550.144409 
	C473.274719,551.910034 475.503967,550.333496 477.495361,548.744690 
	C478.262421,548.132690 478.977966,547.382446 479.508545,546.560608 
	C481.642181,543.255493 484.602325,542.042419 488.452850,542.657471 
	C491.986603,543.221863 494.593994,541.845398 496.522400,537.947510 
M338.755341,319.624023 
	C332.096069,315.008850 328.821472,316.184937 327.021393,323.786713 
	C326.677460,325.239105 326.065704,326.626007 325.658386,328.065948 
	C324.820984,331.026001 325.216553,333.884308 327.631927,335.839233 
	C332.197357,339.534271 335.724976,344.201813 339.878784,348.264893 
	C344.589447,352.872650 349.392670,353.004120 353.521118,349.001587 
	C357.216339,345.419067 357.196045,341.885925 352.410980,336.899719 
	C347.449768,331.729950 342.409485,326.718781 338.755341,319.624023 
M324.551697,478.113892 
	C325.018311,474.584869 324.404083,471.157532 323.555084,467.757202 
	C322.063782,461.784424 319.021820,458.935242 314.690948,459.425659 
	C309.365723,460.028687 305.642792,463.876312 305.413940,469.460785 
	C305.209717,474.443085 305.335663,479.440582 305.380554,484.430817 
	C305.412659,488.001190 307.107697,490.513092 310.593475,491.457489 
	C319.757477,493.940491 322.645416,491.898071 323.731110,482.395996 
	C323.862518,481.245911 324.163788,480.115234 324.551697,478.113892 
M288.233795,435.268341 
	C284.898987,432.419342 282.292236,429.090302 280.663971,424.936279 
	C278.855743,420.323181 275.415863,416.858002 271.617096,413.861298 
	C269.555756,412.235199 267.090088,410.837402 264.300720,412.654358 
	C261.343536,414.580566 260.138763,417.427795 260.687073,420.788727 
	C261.562775,426.156586 264.301361,430.296631 269.242065,432.947754 
	C274.655548,435.852631 279.938232,439.000336 285.309174,441.985901 
	C289.220856,444.160217 291.823883,447.009613 291.404175,451.896423 
	C291.183624,454.464325 292.060699,456.876068 295.123810,456.608002 
	C298.661133,456.298401 297.920105,453.180420 297.473297,451.134369 
	C296.169006,445.161560 293.135284,440.038940 288.233795,435.268341 
M399.772614,476.396973 
	C399.600983,474.409912 399.586029,472.394348 399.230469,470.440765 
	C397.721436,462.149445 393.250824,460.153046 386.141724,464.838470 
	C381.430847,467.943329 376.943176,471.408173 372.512543,474.910400 
	C368.893616,477.771057 369.708588,481.879547 374.094299,483.280457 
	C375.489563,483.726166 377.048553,483.742310 378.538239,483.794434 
	C384.196350,483.992462 389.658295,483.869415 393.767700,489.292725 
	C396.097778,492.367676 399.889465,490.702393 400.553772,486.677551 
	C401.071594,483.540375 400.787689,480.364044 399.772614,476.396973 
M312.762177,566.387207 
	C320.901642,560.952820 323.236084,555.838623 316.697998,548.048096 
	C315.653137,546.803040 314.902161,545.213440 314.361908,543.662476 
	C313.075073,539.968079 310.399719,538.321838 306.722229,538.522095 
	C303.083588,538.720093 300.496094,540.706482 299.328247,544.258301 
	C297.852570,548.746216 297.664307,553.289856 298.182739,558.012939 
	C299.233246,567.583862 303.279541,570.254150 312.762177,566.387207 
M514.136841,444.207031 
	C507.346863,440.798584 496.016876,445.574982 493.806183,452.764221 
	C492.872314,455.801300 494.309570,457.890717 496.980835,458.521393 
	C503.945526,460.165741 506.021179,465.047943 506.310974,471.378723 
	C506.429077,473.959320 507.547577,476.192841 510.188110,476.355621 
	C512.535583,476.500275 513.278809,474.206818 513.640076,472.174011 
	C514.625183,466.630920 516.141968,461.300415 518.292175,456.043884 
	C520.046692,451.754700 518.917786,447.516113 514.136841,444.207031 
M412.444763,324.883270 
	C408.709656,327.918976 404.836945,330.731018 403.027802,335.582794 
	C401.613678,339.375153 403.051636,342.120911 405.507263,344.562225 
	C408.049377,347.089539 411.144867,347.378296 414.219513,345.541626 
	C419.836121,342.186554 424.671021,337.775146 429.124298,333.090912 
	C431.981354,330.085632 431.790466,325.559418 429.762115,322.325928 
	C427.848297,319.275024 423.972900,319.416107 420.665222,320.786377 
	C418.063324,321.864227 415.591400,323.255890 412.444763,324.883270 
M421.936218,381.976593 
	C425.036682,382.418304 426.465515,380.076813 427.699585,378.053406 
	C430.970215,372.690765 434.093842,367.224884 436.987549,361.650360 
	C439.194092,357.399506 435.864227,355.322388 433.025269,353.243896 
	C430.042969,351.060394 426.511078,349.998810 424.281708,353.505005 
	C420.634796,359.240692 416.154572,364.320465 412.393829,369.931824 
	C410.559082,372.669373 411.451660,375.443481 414.400177,376.398651 
	C417.497070,377.401886 419.447540,379.372986 421.936218,381.976593 
M399.705170,320.495178 
	C399.262024,313.348083 395.519348,307.003418 395.075470,299.711792 
	C394.772919,294.741547 390.436035,294.063751 386.804871,297.761047 
	C385.369324,299.222717 384.106598,300.862427 384.212494,302.971558 
	C384.504608,308.791046 383.761841,314.539673 383.408295,320.321655 
	C383.078522,325.714905 387.059082,330.432556 391.424713,330.625824 
	C395.861450,330.822266 399.089996,327.200195 399.705170,320.495178 
M470.563660,359.978577 
	C464.126953,356.295044 459.227966,357.506226 456.438110,363.895386 
	C454.237396,368.935303 453.504974,374.429657 453.412354,379.885590 
	C453.339142,384.200073 456.450073,386.240509 460.887634,385.395111 
	C471.830475,383.310303 477.331573,369.918488 470.563660,359.978577 
M378.724792,335.783356 
	C374.988770,332.468353 371.380219,328.993195 367.478027,325.886932 
	C364.099152,323.197266 360.425903,324.622040 360.369720,328.723999 
	C360.271698,335.887634 362.405701,342.599579 366.971283,348.143494 
	C370.088348,351.928497 381.037170,351.671509 383.976105,347.702454 
	C387.766174,342.583984 382.192657,340.229126 379.979095,336.942078 
	C379.798004,336.673218 379.498596,336.483978 378.724792,335.783356 
M277.353760,347.047760 
	C274.357025,345.954102 271.000488,343.262146 268.339600,346.671906 
	C265.732361,350.012970 266.861847,353.917755 269.038727,357.368958 
	C269.215149,357.648682 269.427307,357.906006 269.624817,358.172302 
	C271.696625,360.965271 273.788116,363.743896 275.836853,366.553680 
	C279.809631,372.002106 284.449890,371.708313 287.798279,365.776672 
	C290.491119,361.006348 289.506836,355.405029 285.121582,351.955170 
	C282.918091,350.221649 280.410675,348.874542 277.353760,347.047760 
M365.760834,594.729370 
	C363.573059,593.209351 361.490112,591.499878 359.171173,590.216980 
	C356.222534,588.585693 353.059540,588.380615 350.272949,590.623413 
	C347.519714,592.839417 346.902130,595.638977 348.015381,599.122742 
	C350.703186,607.533752 352.289154,608.923157 361.160645,608.839050 
	C365.152374,608.801270 370.170837,610.160400 371.841919,604.823608 
	C373.305817,600.148499 369.212433,597.807373 365.760834,594.729370 
M471.936005,446.650391 
	C467.604828,443.344208 461.424255,443.605164 456.933228,447.283905 
	C453.596497,450.017120 452.289642,454.968719 453.969543,458.513245 
	C455.284119,461.286957 465.099579,467.106384 467.704620,466.642181 
	C469.103180,466.392975 470.198578,465.574921 470.817780,464.371338 
	C473.630798,458.903351 475.204254,453.285339 471.936005,446.650391 
M520.036011,533.464417 
	C517.905823,535.194336 514.454407,536.548340 515.641418,539.895264 
	C516.780945,543.108215 520.247925,541.753967 522.740723,541.679382 
	C527.364136,541.541138 531.527344,542.209167 535.378296,545.188416 
	C539.403748,548.302673 544.246033,545.853271 544.650879,540.780640 
	C545.002441,536.376587 542.755920,533.432495 538.902527,531.780396 
	C532.655212,529.102051 526.564880,529.904297 520.036011,533.464417 
M369.596222,302.129120 
	C367.882233,296.914185 364.947479,292.534058 360.430054,289.378601 
	C356.796417,286.840454 354.040924,287.969452 353.363892,292.401794 
	C352.622833,297.253143 353.139343,302.047272 355.417755,306.511719 
	C357.203644,310.011169 359.064484,313.529663 363.953033,312.601074 
	C367.920990,311.847321 369.868744,308.448334 369.596222,302.129120 
M510.392883,556.674988 
	C521.216064,556.559082 531.641357,557.750977 540.402161,565.108215 
	C542.481995,566.854797 545.084656,569.405884 547.632141,566.053528 
	C550.154358,562.734375 547.973328,560.151489 545.268005,558.066650 
	C544.484619,557.462952 543.594666,556.965149 542.692261,556.553040 
	C532.614929,551.951294 521.916870,550.958313 511.020355,551.194031 
	C509.688538,551.222778 508.177094,551.342102 507.667969,552.840698 
	C507.074799,554.586609 508.285645,555.606689 510.392883,556.674988 
M455.228668,558.393921 
	C451.148041,558.438660 447.706909,559.909607 445.708588,563.544067 
	C444.391174,565.940186 446.688599,575.213562 448.690094,577.159180 
	C451.200439,579.599426 454.724091,579.391968 456.130402,576.268860 
	C457.529510,573.161804 459.377289,570.591858 461.830444,568.304688 
	C463.719391,566.543518 463.503937,564.550903 462.032257,562.531494 
	C460.495605,560.422913 458.451965,559.150391 455.228668,558.393921 
M511.959747,497.413452 
	C508.374146,492.817566 506.185638,492.240387 501.451233,495.045685 
	C498.313385,496.904999 495.376404,499.100494 492.309967,501.084442 
	C490.757935,502.088623 489.782288,503.310364 490.459290,505.212341 
	C491.099884,507.011993 492.553375,507.706787 494.387512,507.644653 
	C496.533234,507.572083 498.727417,507.110687 500.813416,507.415131 
	C508.855103,508.588776 511.617706,506.419739 511.959747,497.413452 
M275.157501,529.331177 
	C278.509399,532.174683 282.308502,534.267639 286.526154,535.399536 
	C289.600555,536.224609 292.329132,535.180603 293.442902,532.045898 
	C294.492889,529.090820 292.326569,527.116638 290.069000,526.114990 
	C285.523926,524.098328 280.762878,522.564514 276.074677,520.876709 
	C274.473145,520.300049 273.118256,520.877686 272.067627,522.128357 
	C270.875488,523.547546 271.410339,524.971130 272.310089,526.249878 
	C272.973663,527.193054 273.838440,527.994751 275.157501,529.331177 
M237.899353,369.107208 
	C239.141449,369.501343 240.361328,370.004639 241.631058,370.262787 
	C243.329880,370.608185 244.696411,370.016479 244.651672,368.087189 
	C244.607697,366.190582 243.078461,366.060028 241.793015,366.612976 
	C239.791077,367.474121 238.051178,365.757233 236.176636,366.174744 
	C235.775742,367.521790 236.732300,368.047791 237.899353,369.107208 
M518.841431,338.965668 
	C519.605164,337.450836 519.071716,336.787628 517.453308,336.930420 
	C516.013489,337.057495 514.317627,336.771027 513.541199,338.394897 
	C513.237915,339.029144 513.181946,340.281555 513.580200,340.667938 
	C515.710083,342.734039 517.038513,340.687408 518.841431,338.965668 
z"/>
<path fill="#000000" opacity="1.000000" stroke="none" 
	d="
M124.879951,266.393951 
	C132.172455,256.819855 137.401093,246.310532 144.149109,236.842545 
	C158.297256,216.991531 187.377228,219.413315 198.696182,241.127060 
	C200.667068,244.907928 201.017899,249.054352 201.365921,253.925674 
	C207.510254,253.542709 213.642654,253.415161 219.587570,254.872665 
	C225.355682,256.286835 231.053146,257.989136 237.027145,259.632416 
	C238.565216,255.282516 235.707397,252.379608 234.202332,249.335449 
	C224.367416,229.443268 215.793762,209.072021 210.055237,187.590210 
	C208.984131,183.580521 208.254303,179.480835 207.291763,175.440613 
	C206.482864,172.045288 207.562485,169.531052 210.640884,167.942444 
	C216.591263,164.871689 222.167358,161.239227 227.133530,156.747238 
	C230.711227,153.511139 233.970367,155.227325 237.114227,157.242645 
	C246.814682,163.461044 255.720459,170.714890 264.325073,178.361649 
	C275.559418,188.345367 285.661774,199.412750 295.561768,210.680862 
	C297.758392,213.181061 299.998993,215.512619 303.063904,217.138489 
	C306.877350,219.161453 306.998260,222.770447 303.306305,224.927032 
	C296.671906,228.802383 290.360596,233.080536 284.297272,237.798706 
	C280.900330,240.442047 277.990601,239.162827 276.846588,234.996918 
	C276.540100,233.880768 276.615906,232.585983 276.075806,231.619278 
	C271.818420,223.999374 269.832001,222.883957 263.589478,227.443787 
	C262.513855,228.229477 261.395447,228.956863 260.292694,229.705109 
	C252.953293,234.684875 252.786789,239.045105 259.715118,244.873749 
	C265.203918,249.491394 265.111298,251.827179 258.775940,254.934341 
	C246.476898,260.966370 239.050125,271.486511 232.470459,282.829010 
	C229.063629,288.701965 228.092850,288.243011 222.375336,284.457062 
	C214.142181,279.005341 204.747406,277.034515 194.848022,279.808258 
	C194.391220,279.936279 194.009796,280.333221 193.897202,280.406677 
	C193.574692,282.609741 195.003815,283.208923 196.065948,283.822540 
	C203.200485,287.944244 208.975922,294.282654 217.538574,296.161560 
	C221.077911,296.938202 221.227173,300.398987 219.216644,303.035431 
	C215.167328,308.345398 211.381653,313.778931 208.239120,319.689789 
	C206.706375,322.572754 203.708649,323.444916 201.690277,320.776947 
	C195.742447,312.914764 186.893234,309.004242 179.190399,303.601959 
	C166.512604,294.710480 153.448288,286.369659 140.534607,277.815277 
	C136.665878,275.252502 133.003540,272.333466 128.201599,271.500946 
	C125.743607,271.074829 124.530128,269.363861 124.879951,266.393951 
M252.631012,207.241455 
	C254.163605,205.668381 253.505951,204.143494 252.365311,202.808029 
	C247.384430,196.976334 241.810059,191.774918 235.495178,187.405273 
	C234.741043,186.883453 233.753799,186.260391 232.431061,187.644135 
	C233.311005,192.879105 235.085342,198.160217 237.126831,203.366119 
	C241.597382,214.766251 242.552719,215.038605 252.631012,207.241455 
M168.734131,265.701416 
	C171.654602,267.725983 174.463165,270.248657 177.109863,265.175781 
	C178.680130,262.166107 179.574417,259.207214 177.801559,256.201294 
	C175.572968,252.422607 172.043091,250.129196 167.705856,249.584396 
	C164.807175,249.220306 159.323120,253.763580 158.758682,256.718719 
	C158.108063,260.124969 161.339127,260.532806 163.169464,261.953217 
	C164.744568,263.175598 166.476822,264.195435 168.734131,265.701416 
z"/>
<path fill="#000000" opacity="1.000000" stroke="none" 
	d="
M409.492676,114.311523 
	C417.581390,115.927429 425.250732,118.092056 433.063538,119.400063 
	C439.654510,120.503510 446.202209,121.600655 452.358429,124.199905 
	C469.338287,131.369080 474.212982,151.805130 462.561371,166.233353 
	C460.186493,169.174149 456.817871,170.654861 453.358063,173.036713 
	C461.619446,180.945663 461.733276,190.483887 458.889709,200.375549 
	C454.646057,215.137680 441.739227,222.257721 424.924408,218.875412 
	C416.141144,217.108658 407.478638,214.676270 398.852234,212.225433 
	C395.089050,211.156281 390.287079,212.773224 387.622803,209.187729 
	C384.422241,204.880600 389.680206,202.077301 390.508911,198.400558 
	C393.467499,185.274216 396.540253,172.173569 399.579193,159.065369 
	C401.867279,149.195892 404.205261,139.337814 406.446350,129.457718 
	C407.212067,126.082085 408.269592,122.743019 407.046112,119.158569 
	C406.397461,117.258148 407.460052,115.613258 409.492676,114.311523 
M420.661652,181.234390 
	C420.041290,183.986069 419.538696,186.771103 418.771393,189.481186 
	C417.768158,193.024521 418.518738,195.017502 422.507599,195.961853 
	C426.311890,196.862549 429.493408,196.577942 432.001801,193.578384 
	C434.615143,190.453369 435.524811,186.732498 434.115204,182.828094 
	C432.538849,178.461823 428.570679,177.351151 424.552582,176.681366 
	C421.720795,176.209305 421.531647,178.646454 420.661652,181.234390 
M430.613892,141.377350 
	C428.289764,145.514709 428.108063,150.242661 426.929108,154.696167 
	C426.509186,156.282501 427.256744,157.186172 428.496246,157.957581 
	C432.727692,160.591095 439.149017,158.802399 441.370056,154.346313 
	C445.125977,146.810791 440.724731,141.017639 430.613892,141.377350 
z"/>
<path fill="#000000" opacity="1.000000" stroke="none" 
	d="
M545.399048,244.280243 
	C562.407471,236.856522 579.541016,231.044876 597.318298,227.140945 
	C602.225830,226.063232 605.599731,227.139709 607.890564,231.969360 
	C610.241882,236.926666 613.190552,241.642624 617.067078,245.589340 
	C620.513184,249.097946 620.260620,252.505051 617.775024,256.335052 
	C609.948914,268.393829 600.676575,279.285339 590.858337,289.724152 
	C583.094910,297.978333 574.700439,305.574677 566.126099,312.982147 
	C562.752563,315.896576 559.331238,318.739166 557.097900,322.863464 
	C555.309692,326.165680 551.863342,326.203705 549.915527,322.989136 
	C545.856140,316.289764 541.621155,309.750916 536.843872,303.527100 
	C534.354553,300.284119 535.514893,297.645538 539.549133,296.379272 
	C542.261536,295.527863 544.922363,294.745819 547.191406,292.887054 
	C551.965942,288.975922 548.904358,285.494537 546.654846,282.036682 
	C540.916077,273.215637 539.967773,272.669617 535.325684,274.915070 
	C532.728149,276.171509 530.677063,277.960907 528.900940,280.290009 
	C525.977783,284.123413 523.050659,283.985382 520.800537,279.816071 
	C518.016418,274.657227 514.794556,269.869354 511.039398,265.370148 
	C508.554291,262.392609 509.238647,258.833862 512.567627,258.206543 
	C523.601929,256.127228 532.430664,249.034973 542.761353,245.428284 
	C543.544983,245.154709 544.291199,244.773895 545.399048,244.280243 
M580.311951,263.807617 
	C583.051025,260.264801 586.687256,257.318939 588.821655,251.830826 
	C578.901733,253.465683 570.658813,256.113312 563.071472,260.713776 
	C561.273621,261.803864 561.334290,263.342224 562.441711,264.989227 
	C569.266418,275.139374 568.000122,275.899384 577.074707,267.219421 
	C578.035583,266.300385 578.915100,265.296326 580.311951,263.807617 
z"/>
<path fill="#000000" opacity="1.000000" stroke="none" 
	d="
M467.586365,212.898102 
	C473.316223,191.614151 485.152161,174.794662 502.196686,161.868332 
	C512.263245,154.234009 527.540161,154.783783 537.990051,161.828812 
	C548.608582,168.987549 554.192200,182.343567 550.819397,195.163803 
	C545.432922,215.637604 533.914612,232.413406 517.149475,245.191528 
	C505.913940,253.755066 491.966644,253.515228 480.717285,245.893555 
	C469.553741,238.330017 464.689423,226.310043 467.586365,212.898102 
M492.469177,218.795609 
	C491.367310,221.658722 491.108276,224.446106 494.195099,226.199234 
	C497.130035,227.866119 499.671783,226.465546 501.867889,224.478745 
	C506.338837,220.433914 509.691681,215.452698 513.083618,210.541885 
	C517.795776,203.719727 522.743469,197.014542 525.891907,189.253571 
	C527.073608,186.340714 527.587952,183.365585 524.445984,181.240189 
	C521.382812,179.168030 519.115784,181.236572 516.913147,183.008316 
	C515.755859,183.939240 514.670959,185.005035 513.732361,186.155930 
	C505.636749,196.083008 498.208252,206.454010 492.469177,218.795609 
z"/>
<path fill="#000000" opacity="1.000000" stroke="none" 
	d="
M113.066986,316.917480 
	C125.962982,309.022064 139.459579,310.195496 153.067108,312.701508 
	C163.410736,314.606415 173.542770,317.210785 182.744980,322.558624 
	C197.347183,331.044678 203.017090,343.606720 199.252823,359.041565 
	C195.725800,373.503571 183.993439,382.706940 167.657578,383.224121 
	C150.377502,383.771149 133.857544,379.953003 118.496681,372.206818 
	C95.643150,360.682251 92.979401,333.403351 113.066986,316.917480 
M171.513504,345.954163 
	C163.696274,342.527130 155.367233,340.986755 147.078079,339.277771 
	C140.887283,338.001373 134.709396,336.723572 128.327255,337.312653 
	C125.994469,337.527954 124.094246,338.404327 123.441162,340.842102 
	C122.750443,343.420319 123.740219,345.405579 125.964287,346.783844 
	C126.951881,347.395874 127.941452,348.068146 129.022324,348.456543 
	C142.055649,353.139801 155.417191,356.297668 169.311234,356.822144 
	C172.449905,356.940613 175.540070,356.431091 176.428085,352.779510 
	C177.267563,349.327454 174.751419,347.701019 171.513504,345.954163 
z"/>
<path fill="#000000" opacity="1.000000" stroke="none" 
	d="
M630.559937,415.455261 
	C626.519165,417.341675 625.766235,421.188507 624.184937,424.398682 
	C620.238647,432.410248 616.147644,440.300873 607.077820,443.647827 
	C593.896423,448.511963 581.158630,447.438293 569.506470,439.461731 
	C561.324158,433.860535 559.062805,425.068237 559.205872,415.753448 
	C559.297302,409.797333 560.394043,403.864990 562.570251,398.206696 
	C563.274414,396.375702 563.701599,394.532684 563.284668,392.390717 
	C562.462402,388.166382 564.387634,385.799072 568.602966,386.188812 
	C574.607666,386.743958 580.525940,386.882690 586.482422,385.802856 
	C588.662537,385.407654 590.843445,385.718231 592.122986,388.004486 
	C593.348938,390.195099 592.745728,392.240448 591.478333,394.101562 
	C588.751282,398.106171 586.296753,402.248840 584.558655,406.782990 
	C583.596191,409.293823 583.065430,411.880829 583.393616,414.598236 
	C583.687927,417.035675 585.170044,418.470734 587.336243,419.291748 
	C589.480591,420.104462 591.202942,419.291595 592.752686,417.787018 
	C594.353394,416.232910 595.145508,414.211670 596.121826,412.286255 
	C597.852600,408.873199 599.452026,405.379913 601.395203,402.090820 
	C607.274780,392.138550 617.515076,387.288208 628.908936,388.915985 
	C631.373413,389.268097 633.849976,389.626221 636.266663,390.207520 
	C656.833984,395.155121 663.415344,409.650635 659.386047,429.644592 
	C658.640442,433.344635 656.929993,436.757721 657.503418,440.821136 
	C657.973389,444.151794 655.431152,445.336975 652.311890,445.314514 
	C646.985229,445.276154 641.657593,445.363831 636.331238,445.311371 
	C630.984009,445.258759 629.085999,442.197540 631.777588,437.497650 
	C634.018677,433.584259 636.427734,429.771729 637.442200,425.342102 
	C638.946594,418.773071 636.955078,415.851166 630.559937,415.455261 
z"/>
<path fill="#000000" opacity="1.000000" stroke="none" 
	d="
M657.507690,350.641602 
	C659.963806,359.432922 659.803040,359.833893 651.508667,362.077972 
	C647.146362,363.258270 643.000916,364.938965 638.870422,366.720459 
	C636.888733,367.575165 634.692932,368.533234 632.809753,366.657806 
	C631.150330,365.005249 630.941467,362.849182 631.528259,360.607361 
	C631.822998,359.481262 632.139526,358.349243 632.291382,357.199432 
	C632.894592,352.631805 630.701050,350.455719 626.216187,351.511108 
	C608.093689,355.775848 589.995789,360.145325 571.898193,364.514893 
	C569.945190,364.986420 568.280945,366.101288 566.582703,367.194855 
	C562.633301,369.737946 559.476440,368.588867 558.961487,364.092010 
	C558.159119,357.086029 556.215149,350.429901 554.088440,343.766479 
	C553.069153,340.572784 554.017029,337.671936 557.830994,337.805115 
	C569.065430,338.197388 579.375977,334.043121 590.051575,331.727478 
	C599.795898,329.613831 609.484070,327.236542 619.176880,324.892181 
	C624.877380,323.513458 625.570862,321.850220 622.717224,317.000397 
	C616.773193,306.898407 616.778931,306.946564 628.582825,305.535919 
	C632.207275,305.102722 635.798279,304.367584 639.391357,303.699463 
	C645.387207,302.584625 646.495728,303.124634 647.574829,309.045624 
	C650.111206,322.962067 653.453674,336.676208 657.507690,350.641602 
z"/>
<path fill="#000000" opacity="1.000000" stroke="none" 
	d="
M178.225662,440.402100 
	C168.081802,445.621460 157.413223,447.524445 146.613220,448.127716 
	C137.852707,448.617004 129.025055,448.908081 120.233391,447.395660 
	C102.853546,444.405853 91.063797,427.317139 94.650795,410.107574 
	C95.291801,407.032257 97.007088,405.479736 99.875938,404.879120 
	C104.423973,403.926941 108.975449,402.990723 113.530090,402.070648 
	C115.843163,401.603333 118.223991,401.113159 119.940315,403.377289 
	C121.659920,405.645721 121.336121,407.869049 119.981071,410.330109 
	C117.208702,415.365234 119.140495,419.209106 124.985107,419.526459 
	C137.317123,420.196075 149.607834,419.514099 161.482422,415.754578 
	C169.654053,413.167419 171.632858,409.024963 169.133194,401.012177 
	C167.235931,394.930450 168.978271,392.706696 175.432465,392.804688 
	C179.091400,392.860260 182.764236,392.913544 186.409912,392.663422 
	C189.758865,392.433655 191.865143,393.740906 192.869339,396.857269 
	C198.451218,414.179688 194.595383,431.460815 178.225662,440.402100 
z"/>
<path fill="#000000" opacity="1.000000" stroke="none" 
	d="
M315.211121,134.994354 
	C319.934418,153.086212 324.567871,170.775070 329.232452,188.455704 
	C330.701019,194.022293 332.178650,194.779541 337.304230,192.163940 
	C339.490387,191.048325 341.231445,189.089584 343.358978,187.823517 
	C347.496460,185.361298 350.941528,187.220520 351.341156,191.983032 
	C351.758545,196.957916 352.342804,201.919342 353.729340,206.718506 
	C354.838837,210.558945 353.730164,213.025101 349.780396,213.735718 
	C337.301331,215.980835 325.235962,219.738159 313.171692,223.515640 
	C309.466309,224.675827 306.552185,223.119293 306.941620,219.507751 
	C307.911407,210.513702 304.189209,202.562714 302.183594,194.284378 
	C298.073669,177.320358 293.286652,160.521240 288.905548,143.621277 
	C288.056702,140.346970 286.898560,137.379593 284.924164,134.584152 
	C282.723145,131.467865 283.473541,128.555695 287.384827,127.763802 
	C294.730255,126.276642 301.938690,124.452675 309.040192,122.021065 
	C312.771698,120.743355 315.068512,123.044937 314.641022,127.211815 
	C314.381195,129.744263 314.216339,132.176804 315.211121,134.994354 
z"/>
</svg>