<?xml version="1.0" standalone="no"?>
<!DOCTYPE svg PUBLIC "-//W3C//DTD SVG 20010904//EN"
 "http://www.w3.org/TR/2001/REC-SVG-20010904/DTD/svg10.dtd">
<svg version="1.0" xmlns="http://www.w3.org/2000/svg"
 width="750.000000pt" height="750.000000pt" viewBox="0 0 750.000000 750.000000"
 preserveAspectRatio="xMidYMid meet">

<g transform="translate(0.000000,750.000000) scale(0.100000,-0.100000)"
fill="#000000" stroke="none">
<path d="M4105 6419 c-4 -6 -4 -25 -1 -42 7 -42 -165 -790 -188 -816 -21 -23
-20 -58 2 -65 9 -3 42 -9 72 -15 30 -5 104 -23 164 -40 269 -76 413 -16 455
191 18 85 4 145 -48 202 -14 16 -21 30 -16 32 69 26 120 90 142 178 24 98 8
162 -56 226 -58 58 -120 82 -277 111 -63 11 -133 27 -156 35 -48 17 -84 18
-93 3z m277 -239 c21 -6 44 -21 53 -33 33 -46 8 -141 -41 -153 -30 -8 -93 1
-107 15 -10 10 18 147 36 169 11 15 12 15 59 2z m-45 -375 c34 -23 45 -59 33
-106 -17 -60 -45 -82 -103 -76 -69 6 -73 14 -57 94 21 111 25 116 66 110 20
-3 47 -13 61 -22z"/>
<path d="M3090 6340 c-25 -10 -76 -24 -115 -31 -92 -16 -102 -28 -70 -88 35
-64 217 -768 209 -807 -4 -21 -1 -34 10 -43 14 -12 35 -8 139 23 67 20 158 44
202 53 96 20 106 29 93 86 -5 23 -13 71 -16 107 -7 62 -8 65 -36 68 -17 2 -36
-4 -50 -16 -52 -47 -110 -56 -126 -19 -5 12 -44 152 -85 311 -52 199 -74 299
-70 318 7 30 -8 58 -29 57 -6 0 -31 -9 -56 -19z"/>
<path d="M2305 5995 c-22 -18 -69 -51 -105 -73 l-65 -40 1 -53 c4 -111 108
-410 240 -687 35 -73 64 -138 64 -144 0 -12 -11 -10 -129 26 -63 20 -105 26
-172 26 l-89 0 0 45 c0 59 -27 110 -85 164 -105 97 -250 126 -347 69 -59 -35
-115 -100 -174 -200 -26 -44 -68 -107 -92 -140 -50 -67 -49 -88 4 -99 40 -8
686 -440 707 -473 23 -35 44 -33 65 5 9 17 41 66 71 107 59 84 59 101 2 113
-35 7 -231 133 -231 149 0 55 260 27 317 -34 38 -41 37 -42 113 77 62 97 127
163 205 208 33 20 61 43 63 52 2 9 -14 33 -37 54 -39 38 -58 80 -48 106 8 20
128 97 152 97 30 0 64 -39 79 -91 8 -26 20 -45 30 -47 9 -2 44 18 79 43 34 26
86 61 115 77 59 34 67 60 25 82 -16 8 -83 75 -151 150 -164 181 -370 364 -503
444 -47 29 -56 28 -104 -13z m206 -365 c44 -41 79 -82 79 -91 0 -18 -51 -61
-95 -81 -24 -11 -29 -10 -45 12 -25 32 -93 238 -86 257 9 22 54 -8 147 -97z
m-725 -541 c42 -26 64 -56 64 -88 0 -32 -38 -91 -58 -91 -22 0 -151 86 -158
105 -7 17 28 65 59 82 32 18 55 16 93 -8z"/>
<path d="M5092 5989 c-70 -27 -170 -122 -251 -236 -177 -249 -197 -440 -60
-573 65 -63 120 -85 214 -85 68 0 89 4 139 29 111 54 241 210 329 393 36 76
41 96 45 174 4 77 1 93 -20 141 -29 61 -85 121 -143 151 -60 31 -183 34 -253
6z m176 -211 c19 -19 14 -74 -9 -121 -12 -23 -48 -80 -79 -127 -125 -186 -178
-235 -227 -209 -55 29 -33 97 87 274 93 136 150 195 188 195 15 0 33 -5 40
-12z"/>
<path d="M5890 5294 c-187 -48 -402 -130 -593 -225 -55 -27 -116 -53 -135 -57
-59 -13 -60 -30 -5 -103 27 -35 55 -79 62 -97 17 -42 49 -43 79 -2 28 37 77
63 107 56 26 -7 105 -121 105 -152 0 -29 -40 -63 -91 -78 -58 -17 -60 -39 -11
-102 21 -27 55 -77 76 -111 41 -69 68 -81 88 -38 6 14 76 84 154 155 195 178
404 416 452 517 14 29 14 34 -2 55 -41 57 -102 149 -118 177 -21 38 -39 39
-168 5z m-5 -243 c-9 -31 -167 -191 -187 -191 -21 0 -87 86 -88 113 0 22 93
67 197 96 72 20 89 16 78 -18z"/>
<path d="M4080 4930 c11 -11 23 -20 27 -20 3 0 -2 9 -12 20 -10 11 -22 20 -27
20 -4 0 1 -9 12 -20z"/>
<path d="M3994 4928 c-4 -7 -14 -24 -23 -38 -15 -26 -11 -23 28 23 14 15 19
27 13 27 -6 0 -14 -6 -18 -12z"/>
<path d="M3240 4798 l-41 -43 -132 1 c-107 2 -122 0 -82 -7 28 -5 88 -10 134
-11 78 -2 85 -1 106 24 41 48 71 61 106 49 44 -15 48 -13 20 9 -36 31 -65 25
-111 -22z"/>
<path d="M3514 4819 c-19 -22 -19 -22 4 -8 12 8 22 17 22 21 0 12 -6 9 -26
-13z"/>
<path d="M3465 4737 c-21 -51 -18 -59 5 -13 11 22 18 42 15 44 -3 3 -12 -11
-20 -31z"/>
<path d="M2874 4713 c-19 -20 -34 -42 -34 -47 1 -6 12 3 25 19 13 17 34 38 46
48 12 9 16 17 9 17 -7 0 -28 -17 -46 -37z"/>
<path d="M3401 4724 c0 -11 3 -14 6 -6 3 7 2 16 -1 19 -3 4 -6 -2 -5 -13z"/>
<path d="M3400 4668 c0 -20 25 -24 36 -6 5 7 3 8 -6 3 -7 -4 -16 -2 -21 6 -7
11 -9 10 -9 -3z"/>
<path d="M4489 4598 c-14 -10 -53 -24 -87 -31 -34 -6 -62 -16 -62 -20 0 -5 12
-6 28 -3 15 4 38 8 52 10 28 3 68 22 88 43 22 22 10 23 -19 1z"/>
<path d="M4128 4598 c-10 -25 22 -57 62 -63 l35 -5 -31 10 c-35 11 -50 26 -56
55 -3 18 -4 18 -10 3z"/>
<path d="M6370 4554 c-8 -3 -51 -8 -95 -12 -93 -8 -102 -20 -61 -82 30 -46 42
-85 27 -94 -25 -16 -599 -146 -633 -144 -55 3 -65 -11 -48 -70 7 -26 21 -83
30 -126 20 -95 33 -108 81 -78 41 25 628 167 640 155 11 -11 14 -61 5 -98 -4
-20 -2 -37 8 -50 13 -18 17 -19 48 -7 18 8 67 25 108 39 41 13 80 29 86 36 9
9 3 43 -23 137 -19 69 -47 186 -62 260 l-28 135 -34 2 c-19 0 -41 -1 -49 -3z"/>
<path d="M4234 4541 c3 -5 15 -7 26 -4 28 7 25 13 -6 13 -14 0 -23 -4 -20 -9z"/>
<path d="M4585 4519 c-4 -6 -5 -12 -2 -15 2 -3 7 2 10 11 7 17 1 20 -8 4z"/>
<path d="M1305 4476 c-97 -24 -165 -77 -209 -164 -67 -134 -21 -303 107 -389
105 -71 332 -133 485 -133 197 0 319 91 350 260 40 218 -131 368 -481 425
-109 18 -183 18 -252 1z m190 -248 c173 -28 306 -75 324 -115 16 -35 -7 -70
-52 -78 -54 -10 -323 42 -416 81 -69 29 -91 73 -53 106 31 28 59 29 197 6z"/>
<path d="M4550 4447 c-6 -24 -10 -57 -7 -73 4 -26 4 -26 6 7 0 20 8 53 16 73
8 20 11 36 6 36 -4 0 -14 -19 -21 -43z"/>
<path d="M4245 4421 c-13 -5 -5 -8 28 -8 26 -1 45 3 41 8 -6 11 -41 11 -69 0z"/>
<path d="M4175 4400 c-4 -6 -10 -8 -14 -5 -9 5 -25 -7 -66 -54 -31 -35 -17
-33 21 2 11 11 41 31 65 44 32 17 38 23 22 23 -12 0 -25 -5 -28 -10z"/>
<path d="M5096 4380 c-4 -14 -12 -42 -18 -62 -17 -56 7 -91 50 -72 25 11 33
11 67 2 28 -7 29 -7 10 8 -15 12 -33 14 -72 9 -29 -4 -53 -3 -53 0 0 4 7 31
16 61 8 30 14 60 11 67 -2 6 -7 1 -11 -13z"/>
<path d="M4350 4383 c0 -5 5 -15 10 -23 8 -12 10 -11 10 8 0 12 -4 22 -10 22
-5 0 -10 -3 -10 -7z"/>
<path d="M4543 4330 c17 -43 33 -70 44 -70 7 0 2 15 -13 37 -29 43 -40 54 -31
33z"/>
<path d="M2655 4300 c-13 -6 -15 -9 -5 -9 8 0 22 4 30 9 18 12 2 12 -25 0z"/>
<path d="M2715 4300 c3 -5 8 -10 11 -10 2 0 4 5 4 10 0 6 -5 10 -11 10 -5 0
-7 -4 -4 -10z"/>
<path d="M2605 4269 c-11 -17 1 -21 15 -4 8 9 8 15 2 15 -6 0 -14 -5 -17 -11z"/>
<path d="M2566 4208 c-19 -27 -19 -68 -1 -123 13 -40 13 -40 8 26 -3 42 -1 74
7 88 16 31 6 38 -14 9z"/>
<path d="M5110 4129 c0 -5 5 -7 10 -4 6 3 10 8 10 11 0 2 -4 4 -10 4 -5 0 -10
-5 -10 -11z"/>
<path d="M5053 4098 c-18 -13 -35 -29 -38 -36 -2 -7 16 1 40 18 25 17 45 33
45 35 0 10 -17 4 -47 -17z"/>
<path d="M3720 4025 c0 -8 5 -15 10 -15 6 0 10 7 10 15 0 8 -4 15 -10 15 -5 0
-10 -7 -10 -15z"/>
<path d="M4942 4010 c-38 -27 -63 -72 -48 -87 3 -4 6 3 6 14 0 13 19 38 46 62
55 48 53 53 -4 11z"/>
<path d="M2527 4014 c-3 -4 -21 -10 -39 -14 l-33 -8 36 -1 c21 -1 42 5 49 14
12 14 0 22 -13 9z"/>
<path d="M3676 3958 c-26 -41 -29 -76 -11 -123 9 -25 21 -42 27 -39 6 4 6 10
-1 17 -17 17 -14 119 5 145 8 12 10 22 5 22 -6 0 -17 -10 -25 -22z"/>
<path d="M5132 3957 c-12 -13 -22 -31 -22 -40 0 -9 -5 -19 -10 -22 -6 -4 -8
-11 -5 -16 4 -5 1 -9 -4 -9 -6 0 -11 -6 -11 -13 0 -7 -9 -30 -21 -51 -11 -21
-18 -40 -16 -43 10 -9 47 51 62 100 16 55 58 112 75 102 6 -3 10 -1 10 4 0 19
-36 12 -58 -12z"/>
<path d="M4380 3955 c-8 -9 -8 -15 -2 -15 12 0 26 19 19 26 -2 2 -10 -2 -17
-11z"/>
<path d="M4891 3894 c0 -11 3 -14 6 -6 3 7 2 16 -1 19 -3 4 -6 -2 -5 -13z"/>
<path d="M4890 3822 c0 -22 4 -43 9 -46 5 -4 7 12 4 36 -8 57 -13 61 -13 10z"/>
<path d="M5181 3824 c0 -11 3 -14 6 -6 3 7 2 16 -1 19 -3 4 -6 -2 -5 -13z"/>
<path d="M3699 3785 c-4 -64 5 -182 15 -193 10 -10 11 7 9 85 -2 54 -8 102
-13 107 -6 6 -10 6 -11 1z"/>
<path d="M5165 3769 c-4 -6 -5 -12 -2 -15 2 -3 7 2 10 11 7 17 1 20 -8 4z"/>
<path d="M4912 3749 c3 -8 18 -15 34 -17 33 -4 24 11 -15 23 -17 5 -22 4 -19
-6z"/>
<path d="M5755 3743 c-105 -4 -119 -10 -110 -51 3 -12 -4 -53 -15 -90 -23 -75
-28 -186 -10 -252 14 -51 77 -122 133 -149 68 -32 159 -44 238 -31 115 20 174
71 244 210 36 72 53 90 85 90 69 0 79 -81 25 -186 -37 -71 -43 -99 -22 -106
10 -3 202 -2 230 1 4 1 7 20 7 44 0 23 7 60 15 82 18 50 19 164 3 219 -8 25
-32 61 -63 92 -69 70 -139 97 -260 98 -143 1 -196 -38 -276 -202 -43 -89 -68
-109 -113 -93 -27 11 -36 30 -36 74 0 34 36 119 70 167 36 50 22 94 -28 88 -9
-1 -62 -4 -117 -5z"/>
<path d="M3085 3720 c-8 -14 3 -30 21 -30 18 0 18 8 0 26 -9 9 -17 10 -21 4z"/>
<path d="M5105 3700 c-3 -5 -2 -10 4 -10 5 0 13 5 16 10 3 6 2 10 -4 10 -5 0
-13 -4 -16 -10z"/>
<path d="M1749 3664 c-10 -12 -10 -22 -1 -48 7 -18 12 -49 12 -68 0 -83 -123
-126 -370 -131 -94 -1 -111 1 -129 17 -24 22 -27 62 -7 89 15 19 11 50 -8 66
-7 5 -48 1 -111 -14 -120 -26 -129 -36 -121 -135 8 -91 53 -180 114 -225 72
-52 145 -68 297 -68 404 3 598 144 565 411 -4 35 -13 76 -20 92 l-12 30 -98 0
c-76 0 -100 -3 -111 -16z"/>
<path d="M4375 3605 c-14 -13 -25 -37 -26 -52 -3 -82 -8 -113 -24 -165 -17
-54 -17 -58 -1 -83 10 -15 31 -34 47 -43 16 -10 29 -20 29 -24 0 -4 7 -5 16
-1 11 4 4 11 -25 23 -22 10 -47 30 -57 45 -16 25 -16 29 0 74 9 26 21 83 25
126 8 68 13 83 36 102 14 13 21 23 15 23 -6 0 -22 -11 -35 -25z"/>
<path d="M3641 3598 c-1 -15 4 -30 9 -33 12 -7 12 12 0 40 -8 18 -9 17 -9 -7z"/>
<path d="M3695 3540 c-3 -5 -1 -10 4 -10 6 0 11 5 11 10 0 6 -2 10 -4 10 -3 0
-8 -4 -11 -10z"/>
<path d="M3750 3536 c0 -2 7 -7 16 -10 8 -3 12 -2 9 4 -6 10 -25 14 -25 6z"/>
<path d="M4766 3523 c-15 -16 -5 -73 18 -100 l25 -28 -15 45 c-8 24 -13 52
-11 62 5 19 -6 32 -17 21z"/>
<path d="M3916 3412 c-12 -20 -17 -80 -6 -87 15 -9 16 -7 23 48 6 41 -3 62
-17 39z"/>
<path d="M3454 3325 c5 -11 11 -28 13 -37 7 -24 23 -23 23 0 0 11 -10 27 -22
38 -21 19 -21 19 -14 -1z"/>
<path d="M5180 3320 c0 -5 6 -10 14 -10 22 0 78 -58 70 -72 -5 -10 -4 -10 6
-2 26 25 -23 94 -67 94 -13 0 -23 -4 -23 -10z"/>
<path d="M4675 3280 c-3 -5 1 -10 9 -10 9 0 16 5 16 10 0 6 -4 10 -9 10 -6 0
-13 -4 -16 -10z"/>
<path d="M2350 3271 c8 -5 31 -12 50 -15 35 -7 35 -7 10 8 -14 9 -36 15 -50
15 -19 0 -21 -2 -10 -8z"/>
<path d="M2570 3276 c0 -9 30 -14 35 -6 4 6 -3 10 -14 10 -12 0 -21 -2 -21 -4z"/>
<path d="M2640 3270 c0 -5 5 -10 10 -10 6 0 10 5 10 10 0 6 -4 10 -10 10 -5 0
-10 -4 -10 -10z"/>
<path d="M2498 3263 c12 -2 30 -2 40 0 9 3 -1 5 -23 4 -22 0 -30 -2 -17 -4z"/>
<path d="M4640 3259 c0 -5 5 -7 10 -4 6 3 10 8 10 11 0 2 -4 4 -10 4 -5 0 -10
-5 -10 -11z"/>
<path d="M2690 3250 c0 -5 5 -10 10 -10 6 0 10 5 10 10 0 6 -4 10 -10 10 -5 0
-10 -4 -10 -10z"/>
<path d="M4460 3241 c0 -5 9 -7 20 -4 11 3 20 7 20 9 0 2 -9 4 -20 4 -11 0
-20 -4 -20 -9z"/>
<path d="M4595 3240 c-3 -5 -1 -10 4 -10 6 0 11 5 11 10 0 6 -2 10 -4 10 -3 0
-8 -4 -11 -10z"/>
<path d="M3970 3231 c0 -6 4 -13 10 -16 6 -3 7 1 4 9 -7 18 -14 21 -14 7z"/>
<path d="M2730 3220 c0 -5 5 -10 10 -10 6 0 10 5 10 10 0 6 -4 10 -10 10 -5 0
-10 -4 -10 -10z"/>
<path d="M2760 3192 c0 -12 19 -26 26 -19 2 2 -2 10 -11 17 -9 8 -15 8 -15 2z"/>
<path d="M5347 3146 c-4 -24 -17 -77 -31 -117 -22 -67 -24 -89 -23 -231 1 -86
5 -160 9 -164 4 -4 6 38 5 92 -4 138 7 244 37 348 28 95 31 116 17 116 -4 0
-11 -20 -14 -44z"/>
<path d="M3423 3152 c-6 -4 -13 -14 -15 -22 -2 -8 -12 -23 -22 -32 -13 -12
-15 -18 -6 -18 8 0 26 15 41 33 l27 32 56 -27 c72 -36 98 -37 65 -5 -38 37
-116 58 -146 39z"/>
<path d="M4963 3148 c-20 -26 -26 -41 -15 -34 12 7 36 46 29 46 -3 0 -9 -6
-14 -12z"/>
<path d="M2810 3136 c0 -3 10 -22 22 -43 17 -27 24 -33 26 -21 3 18 -26 67
-40 68 -5 0 -8 -2 -8 -4z"/>
<path d="M3600 3076 c0 -4 78 -56 85 -56 16 0 0 21 -31 39 -32 19 -54 26 -54
17z"/>
<path d="M4920 3053 c0 -12 5 -25 11 -28 19 -12 22 3 5 27 l-16 22 0 -21z"/>
<path d="M2341 3001 c-33 -30 -62 -87 -60 -118 0 -10 9 1 19 23 10 23 34 58
54 77 20 20 36 39 36 42 0 13 -20 3 -49 -24z"/>
<path d="M2871 2984 c0 -11 3 -14 6 -6 3 7 2 16 -1 19 -3 4 -6 -2 -5 -13z"/>
<path d="M5020 2992 c0 -5 7 -15 15 -22 8 -7 15 -21 15 -32 0 -10 4 -16 10
-13 12 7 -11 67 -28 73 -7 2 -12 -1 -12 -6z"/>
<path d="M4110 2958 c-11 -18 -20 -42 -19 -53 0 -12 6 -5 15 19 8 21 19 45 25
52 6 8 9 14 5 14 -3 0 -15 -15 -26 -32z"/>
<path d="M5162 2930 c0 -14 2 -19 5 -12 2 6 2 18 0 25 -3 6 -5 1 -5 -13z"/>
<path d="M4537 2886 c-21 -16 -22 -26 -3 -26 8 0 17 7 20 16 9 23 4 25 -17 10z"/>
<path d="M4587 2887 c-18 -14 -34 -67 -20 -67 9 0 45 71 39 77 -1 1 -10 -3
-19 -10z"/>
<path d="M5050 2890 c0 -5 5 -10 11 -10 5 0 7 5 4 10 -3 6 -8 10 -11 10 -2 0
-4 -4 -4 -10z"/>
<path d="M2845 2880 c3 -5 11 -10 16 -10 6 0 7 5 4 10 -3 6 -11 10 -16 10 -6
0 -7 -4 -4 -10z"/>
<path d="M2466 2872 c-3 -5 -4 -31 -2 -58 4 -71 43 -124 92 -124 11 0 6 8 -16
23 -38 25 -80 121 -61 140 6 6 11 15 11 19 0 10 -17 10 -24 0z"/>
<path d="M2280 2840 c0 -37 45 -97 91 -121 23 -11 43 -18 46 -16 2 3 -4 8 -15
11 -34 11 -93 72 -107 112 -12 32 -14 34 -15 14z"/>
<path d="M2881 2843 c19 -24 48 -46 81 -60 36 -15 36 -1 1 23 -15 9 -36 26
-47 36 -11 10 -26 18 -34 18 -12 0 -12 -3 -1 -17z"/>
<path d="M4654 2839 c-10 -12 -30 -26 -44 -31 -16 -7 -20 -12 -12 -15 8 -3 26
7 41 21 16 15 47 30 72 35 l44 9 -41 1 c-30 1 -46 -5 -60 -20z"/>
<path d="M5140 2845 c-8 -9 -8 -15 -2 -15 12 0 26 19 19 26 -2 2 -10 -2 -17
-11z"/>
<path d="M2987 2844 c-11 -11 14 -49 39 -61 28 -13 28 -13 -1 34 -20 33 -27
38 -38 27z"/>
<path d="M4520 2840 c0 -5 5 -10 10 -10 6 0 10 5 10 10 0 6 -4 10 -10 10 -5 0
-10 -4 -10 -10z"/>
<path d="M5085 2830 c3 -5 14 -10 23 -10 15 0 15 2 2 10 -20 13 -33 13 -25 0z"/>
<path d="M4117 2797 c-3 -8 -1 -20 4 -28 6 -10 9 -7 9 14 0 29 -5 35 -13 14z"/>
<path d="M4545 2749 c-19 -17 -35 -38 -34 -48 0 -13 2 -13 6 -1 8 19 43 55 68
68 11 6 15 12 8 12 -7 0 -28 -14 -48 -31z"/>
<path d="M4110 2738 c0 -7 5 -20 10 -28 8 -12 10 -9 10 13 0 15 -4 27 -10 27
-5 0 -10 -6 -10 -12z"/>
<path d="M3829 2673 c-13 -15 -12 -15 6 -6 11 6 27 13 35 16 10 4 8 6 -6 6
-12 1 -28 -6 -35 -16z"/>
<path d="M4132 2670 c0 -14 2 -19 5 -12 2 6 2 18 0 25 -3 6 -5 1 -5 -13z"/>
<path d="M4497 2660 c3 -11 7 -20 9 -20 2 0 4 9 4 20 0 11 -4 20 -9 20 -5 0
-7 -9 -4 -20z"/>
<path d="M3786 2640 c-9 -17 -34 -39 -54 -50 -20 -10 -30 -19 -22 -20 9 0 25
7 37 15 24 17 67 74 61 80 -2 3 -12 -9 -22 -25z"/>
<path d="M2470 2636 c9 -25 5 -67 -9 -91 -3 -6 2 -2 12 8 21 24 22 80 2 97
-14 11 -14 10 -5 -14z"/>
<path d="M4141 2624 c-1 -12 6 -28 16 -35 15 -13 15 -12 6 6 -6 11 -13 27 -16
35 -4 10 -6 8 -6 -6z"/>
<path d="M5298 2595 c2 -14 6 -25 8 -25 2 0 4 11 4 25 0 14 -4 25 -9 25 -4 0
-6 -11 -3 -25z"/>
<path d="M3685 2515 c-4 -24 -13 -50 -21 -56 -19 -16 -18 -73 2 -90 19 -16 54
-83 54 -104 0 -8 5 -15 10 -15 14 0 13 13 -6 60 -9 22 -25 45 -35 50 -26 14
-36 76 -16 98 18 20 39 102 27 102 -5 0 -12 -20 -15 -45z"/>
<path d="M4010 2459 c0 -11 4 -18 10 -14 5 3 7 12 3 20 -7 21 -13 19 -13 -6z"/>
<path d="M4021 2394 c0 -11 3 -14 6 -6 3 7 2 16 -1 19 -3 4 -6 -2 -5 -13z"/>
<path d="M4470 2382 c0 -15 -7 -38 -16 -50 -16 -24 -4 -31 15 -8 17 20 26 86
12 86 -6 0 -11 -12 -11 -28z"/>
<path d="M4709 2383 c-46 -49 -63 -83 -50 -96 8 -8 11 -7 11 6 0 9 16 35 36
57 20 22 34 44 32 50 -2 6 -15 -2 -29 -17z"/>
<path d="M2460 2382 c0 -6 17 -22 38 -35 82 -52 160 -97 168 -97 4 0 22 -11
40 -25 19 -15 35 -21 39 -15 3 5 0 10 -7 10 -7 0 -30 15 -52 34 -21 19 -68 47
-105 62 -36 15 -78 39 -93 53 -16 13 -28 19 -28 13z"/>
<path d="M4410 2251 c0 -25 6 -27 13 -6 4 8 2 17 -3 20 -6 4 -10 -3 -10 -14z"/>
<path d="M4662 2245 c0 -16 2 -22 5 -12 2 9 2 23 0 30 -3 6 -5 -1 -5 -18z"/>
<path d="M4012 2240 c-8 -13 -8 -20 -2 -20 6 0 13 7 17 15 9 24 -1 27 -15 5z"/>
<path d="M3808 2242 c-16 -2 -28 -8 -28 -13 0 -9 66 -6 76 3 8 9 -19 14 -48
10z"/>
<path d="M3730 2226 c0 -9 8 -16 20 -16 11 0 20 5 20 12 0 6 -3 8 -7 5 -3 -4
-12 -2 -20 4 -10 9 -13 8 -13 -5z"/>
<path d="M3915 2215 c53 -26 85 -32 85 -15 0 6 -11 10 -24 10 -13 0 -40 7 -59
15 -56 23 -57 17 -2 -10z"/>
<path d="M4410 2174 c0 -11 -5 -25 -12 -32 -6 -6 -9 -14 -6 -18 4 -3 14 6 24
21 13 20 14 29 5 38 -8 8 -11 6 -11 -9z"/>
<path d="M2787 2169 c7 -7 15 -10 18 -7 3 3 -2 9 -12 12 -14 6 -15 5 -6 -5z"/>
<path d="M3685 2170 c3 -5 11 -10 16 -10 6 0 7 5 4 10 -3 6 -11 10 -16 10 -6
0 -7 -4 -4 -10z"/>
<path d="M3380 2138 c-12 -22 -12 -22 6 -6 10 10 15 20 12 24 -4 3 -12 -5 -18
-18z"/>
<path d="M2836 2131 c-4 -5 4 -15 16 -22 22 -12 22 -11 8 7 -8 10 -15 20 -16
22 -1 2 -5 -1 -8 -7z"/>
<path d="M3361 2088 c0 -13 7 -41 15 -63 13 -39 13 -39 9 -6 -3 18 -5 46 -5
62 0 16 -4 29 -10 29 -5 0 -10 -10 -9 -22z"/>
<path d="M3743 1999 c-6 -16 -8 -31 -4 -33 4 -3 12 8 18 25 6 16 8 31 4 33 -4
3 -12 -8 -18 -25z"/>
<path d="M3816 1957 c-6 -12 0 -29 18 -56 15 -21 31 -52 36 -67 8 -28 8 -28 9
-4 1 14 -10 41 -23 61 -13 19 -26 46 -28 60 -4 21 -6 22 -12 6z"/>
<path d="M3676 1885 c-3 -8 -1 -15 4 -15 6 0 10 7 10 15 0 8 -2 15 -4 15 -2 0
-6 -7 -10 -15z"/>
<path d="M3454 1868 c19 -30 42 -42 51 -27 4 5 -2 12 -12 16 -10 3 -27 13 -37
22 -19 16 -19 15 -2 -11z"/>
<path d="M3020 1840 c-11 -7 -7 -10 18 -10 20 0 31 4 27 10 -8 13 -26 13 -45
0z"/>
<path d="M3180 1790 c0 -5 7 -10 16 -10 8 0 12 5 9 10 -3 6 -10 10 -16 10 -5
0 -9 -4 -9 -10z"/>
<path d="M4673 1778 c-11 -13 -24 -30 -28 -38 -8 -16 -6 -14 34 33 14 15 22
27 19 27 -2 0 -14 -10 -25 -22z"/>
<path d="M3872 1760 c0 -19 2 -27 5 -17 2 9 2 25 0 35 -3 9 -5 1 -5 -18z"/>
<path d="M3275 1735 c17 -13 37 -24 45 -25 8 0 -2 11 -22 25 -47 32 -62 32
-23 0z"/>
<path d="M4230 1730 c-9 -6 -10 -10 -3 -10 6 0 15 5 18 10 8 12 4 12 -15 0z"/>
<path d="M4610 1679 c-12 -23 -20 -43 -18 -45 3 -2 14 17 26 41 27 56 20 60
-8 4z"/>
<path d="M4180 1681 c-11 -22 -14 -88 -3 -77 4 4 9 19 11 33 2 15 8 35 13 45
6 12 6 18 0 18 -6 0 -15 -9 -21 -19z"/>
<path d="M4473 1678 c-23 -12 -40 -25 -37 -29 6 -10 93 32 94 44 0 11 -12 8
-57 -15z"/>
<path d="M4383 1611 c-23 -21 -57 -113 -50 -134 2 -6 13 10 25 36 12 26 30 61
42 76 31 45 21 58 -17 22z"/>
<path d="M3902 1604 c4 -3 21 -8 40 -10 20 -3 41 -15 53 -31 46 -60 64 -78 72
-70 4 5 0 13 -10 18 -9 6 -24 23 -32 39 -24 47 -44 60 -87 60 -23 0 -39 -3
-36 -6z"/>
<path d="M4166 1575 c-3 -8 -1 -15 4 -15 13 0 22 18 11 24 -5 3 -11 -1 -15 -9z"/>
<path d="M4150 1530 c-6 -11 -23 -26 -38 -32 -17 -6 -22 -12 -14 -15 20 -7 61
17 68 39 8 28 -2 34 -16 8z"/>
<path d="M4260 1504 c0 -14 3 -14 15 -4 8 7 15 14 15 16 0 2 -7 4 -15 4 -8 0
-15 -7 -15 -16z"/>
<path d="M4536 1484 c-4 -14 -5 -28 -3 -31 3 -2 8 8 11 23 4 14 5 28 3 31 -3
2 -8 -8 -11 -23z"/>
<path d="M4215 1430 c-26 -27 -26 -41 0 -22 10 7 38 52 32 52 -2 0 -16 -13
-32 -30z"/>
<path d="M4335 1430 c-3 -5 -1 -10 4 -10 6 0 11 5 11 10 0 6 -2 10 -4 10 -3 0
-8 -4 -11 -10z"/>
<path d="M3585 1400 c3 -5 18 -10 32 -10 15 0 34 -6 42 -13 26 -22 130 -57
136 -46 4 5 -2 12 -12 15 -10 3 -34 13 -55 21 -20 8 -41 12 -47 9 -6 -4 -11
-1 -11 7 0 18 -21 27 -61 27 -18 0 -28 -4 -24 -10z"/>
<path d="M4311 1387 c-13 -21 -12 -21 5 -5 10 10 16 20 13 22 -3 3 -11 -5 -18
-17z"/>
<path d="M4485 1280 c3 -5 8 -10 11 -10 2 0 4 5 4 10 0 6 -5 10 -11 10 -5 0
-7 -4 -4 -10z"/>
<path d="M4466 1216 c-19 -47 -23 -50 -63 -46 -13 1 -23 -4 -23 -10 0 -7 14
-10 38 -8 32 3 40 8 55 40 10 21 17 45 15 54 -2 10 -11 -3 -22 -30z"/>
<path d="M3950 1176 c0 -2 7 -9 15 -16 9 -7 15 -8 15 -2 0 5 -7 12 -15 16 -8
3 -15 4 -15 2z"/>
<path d="M4325 1170 c28 -12 45 -12 45 0 0 6 -15 10 -32 9 -28 0 -30 -2 -13
-9z"/>
<path d="M4185 1160 c-13 -6 -15 -9 -5 -9 8 0 22 4 30 9 18 12 2 12 -25 0z"/>
</g>
</svg>
