<?xml version="1.0" standalone="no"?>
<!DOCTYPE svg PUBLIC "-//W3C//DTD SVG 20010904//EN"
 "http://www.w3.org/TR/2001/REC-SVG-20010904/DTD/svg10.dtd">
<svg version="1.0" xmlns="http://www.w3.org/2000/svg"
 width="640.000000pt" height="640.000000pt" viewBox="0 0 640.000000 640.000000"
 preserveAspectRatio="xMidYMid meet">

<g transform="translate(0.000000,640.000000) scale(0.100000,-0.100000)"
fill="#000000" stroke="none">
<path d="M1564 5461 c-21 -16 -177 -168 -345 -337 -325 -327 -331 -336 -304
-399 7 -16 163 -180 347 -362 l334 -333 235 0 235 0 43 37 43 36 65 -66 66
-65 -19 -25 c-10 -13 -59 -69 -108 -123 -231 -257 -463 -606 -647 -973 -282
-565 -429 -1117 -429 -1608 0 -121 0 -123 29 -155 29 -32 31 -33 126 -37 265
-9 676 59 1011 168 277 90 638 251 900 401 251 144 538 351 758 545 l98 87
101 -100 100 -100 -26 -32 c-15 -17 -30 -42 -33 -54 -3 -12 -4 -113 -2 -224
l3 -202 315 -315 316 -315 44 0 44 0 308 307 c202 202 311 318 318 339 7 22 7
40 0 60 -12 33 -580 607 -622 630 -21 11 -73 14 -228 14 -207 0 -223 -3 -268
-43 l-23 -21 -101 101 -101 101 113 128 c257 294 466 605 647 963 292 579 443
1137 443 1637 0 141 -11 165 -83 185 -50 13 -263 5 -437 -17 -766 -97 -1639
-507 -2275 -1068 -66 -58 -122 -106 -125 -106 -3 0 -34 29 -70 65 l-64 65 26
27 c46 50 48 61 48 290 0 186 -2 222 -16 243 -27 41 -637 650 -666 666 -41 22
-81 17 -124 -15z m344 -484 l262 -263 0 -144 c0 -80 -4 -152 -10 -160 -7 -11
-30 6 -108 82 -55 54 -112 100 -126 104 -65 16 -126 -30 -126 -97 0 -40 5 -47
101 -145 56 -57 98 -107 95 -113 -5 -7 -61 -11 -159 -11 l-152 0 -262 262
c-145 145 -263 267 -263 273 0 13 462 475 475 475 6 0 129 -118 273 -263z
m3234 38 c-11 -332 -114 -744 -290 -1160 -151 -359 -363 -720 -591 -1010 -71
-89 -250 -295 -258 -295 -7 0 -1423 1413 -1423 1420 0 7 173 158 269 236 112
90 320 233 460 317 333 199 642 337 997 446 222 67 325 91 494 115 157 22 173
23 265 22 l80 -1 -3 -90z m-2001 -1902 c390 -390 708 -712 706 -718 -5 -16
-230 -208 -341 -291 -228 -172 -489 -331 -746 -456 -145 -70 -463 -200 -541
-221 -30 -8 -94 -27 -144 -42 -227 -69 -466 -113 -662 -122 -126 -6 -133 -5
-133 13 1 145 56 517 95 643 12 42 35 119 50 171 132 462 416 1008 741 1426
75 95 254 303 263 304 2 0 323 -318 712 -707z m1872 -1291 l237 -237 -215
-215 -215 -215 -240 240 -240 240 0 132 c0 73 4 133 8 133 4 0 32 -25 62 -55
92 -93 142 -105 197 -50 32 32 35 40 30 77 -5 34 -17 53 -71 107 -36 37 -66
70 -66 74 0 4 62 7 138 7 l137 0 238 -238z"/>
</g>
</svg>
