<?xml version="1.0" standalone="no"?>
<!DOCTYPE svg PUBLIC "-//W3C//DTD SVG 20010904//EN"
 "http://www.w3.org/TR/2001/REC-SVG-20010904/DTD/svg10.dtd">
<svg version="1.0" xmlns="http://www.w3.org/2000/svg"
 width="640.000000pt" height="640.000000pt" viewBox="0 0 640.000000 640.000000"
 preserveAspectRatio="xMidYMid meet">

<g transform="translate(0.000000,640.000000) scale(0.100000,-0.100000)"
fill="#000000" stroke="none">
<path d="M1830 4790 c0 -76 -35 -334 -59 -430 -34 -138 -98 -303 -159 -408
-167 -289 -226 -418 -276 -602 -60 -223 -59 -202 -63 -1012 l-4 -748 -102 0
c-117 0 -144 -10 -170 -60 -32 -62 -5 -212 59 -326 67 -121 189 -221 331 -271
l78 -28 1735 0 1735 0 78 28 c97 34 166 78 235 148 97 101 143 193 162 331 12
84 -1 133 -43 158 -30 19 -52 20 -330 20 l-297 0 2 271 3 270 50 17 c28 10 71
29 96 44 60 36 159 143 189 204 49 104 50 116 50 661 l0 513 -29 32 -29 33
-827 0 -827 0 -29 -33 -29 -32 0 -513 c0 -545 1 -557 50 -661 30 -61 129 -168
189 -204 25 -15 68 -34 96 -44 l50 -17 3 -270 2 -271 -325 0 -325 0 0 633 c0
347 -5 689 -10 759 -23 316 -110 584 -288 884 -157 265 -226 476 -252 769 -6
66 -13 132 -16 148 l-6 27 -99 0 -99 0 0 -27 c0 -16 7 -91 15 -168 31 -291 77
-454 197 -697 37 -76 68 -139 68 -142 0 -2 -58 -6 -130 -8 -123 -3 -131 -4
-155 -28 -15 -15 -28 -44 -34 -75 -17 -89 -88 -128 -162 -89 -31 16 -59 65
-59 106 0 27 -26 61 -57 77 -12 6 -73 11 -142 11 -67 0 -121 2 -121 4 0 3 22
45 48 93 129 238 197 468 222 750 6 65 13 135 16 156 l6 37 -106 0 c-100 0
-106 -1 -106 -20z m69 -1258 c63 -124 198 -192 337 -170 94 15 161 62 221 156
l34 52 112 0 c62 0 117 -4 124 -8 16 -10 78 -173 108 -285 51 -188 55 -263 55
-1003 l0 -684 -707 2 -708 3 -3 625 c-2 373 1 677 8 754 12 153 49 325 97 456
55 149 43 140 183 140 l120 0 19 -38z m2241 -540 l0 -439 -31 -61 c-66 -134
-212 -194 -352 -146 -64 22 -139 91 -168 156 -23 53 -23 55 -25 491 l-2 437
289 0 289 0 0 -438z m786 1 c-2 -436 -2 -438 -25 -491 -64 -142 -240 -212
-376 -148 -73 34 -110 69 -144 138 l-31 61 0 439 0 438 289 0 289 0 -2 -437z
m-511 -816 c30 -15 68 -30 85 -33 l30 -6 0 -274 0 -274 -285 0 -285 0 0 273 0
273 48 13 c56 14 151 73 201 125 l34 35 58 -53 c32 -29 83 -65 114 -79z m775
-810 c0 -56 -116 -183 -204 -224 l-61 -28 -1725 0 -1725 0 -58 27 c-93 44
-167 118 -202 201 l-15 37 1995 0 c1602 0 1995 -2 1995 -13z"/>
</g>
</svg>
