<?xml version="1.0" standalone="no"?>
<!DOCTYPE svg PUBLIC "-//W3C//DTD SVG 20010904//EN"
 "http://www.w3.org/TR/2001/REC-SVG-20010904/DTD/svg10.dtd">
<svg version="1.0" xmlns="http://www.w3.org/2000/svg"
 width="640.000000pt" height="640.000000pt" viewBox="0 0 640.000000 640.000000"
 preserveAspectRatio="xMidYMid meet">

<g transform="translate(0.000000,640.000000) scale(0.100000,-0.100000)"
fill="#000000" stroke="none">
<path d="M3094 5490 c-118 -17 -242 -108 -298 -218 -78 -154 -48 -350 73 -470
85 -85 171 -122 286 -123 152 -2 271 62 352 188 45 71 63 132 63 218 0 122
-40 215 -128 297 -96 90 -216 127 -348 108z m139 -209 c40 -16 99 -73 118
-116 83 -181 -140 -364 -304 -248 -59 41 -87 94 -87 166 0 90 42 157 120 191
40 17 117 21 153 7z"/>
<path d="M2995 3638 c-21 -19 -36 -57 -75 -198 -28 -96 -50 -176 -50 -177 0
-2 -67 -3 -150 -3 l-150 0 0 68 c0 126 -34 182 -109 182 -73 -1 -101 -46 -101
-164 l0 -86 -100 0 -100 0 0 94 c0 92 -1 95 -31 125 -42 43 -98 43 -140 2 -28
-28 -29 -33 -29 -125 l0 -96 -102 -1 c-57 -1 -114 -4 -128 -8 -36 -10 -58 -49
-130 -228 l-65 -161 -160 -4 c-176 -4 -194 -9 -220 -65 -14 -30 -13 -54 25
-329 22 -164 39 -298 37 -299 -25 -10 -85 -43 -134 -73 -40 -25 -80 -42 -111
-46 -68 -9 -99 -41 -107 -109 -3 -29 -5 -257 -3 -507 3 -422 4 -457 21 -482
48 -70 176 -56 314 34 108 70 165 69 280 -6 164 -105 299 -99 480 22 45 29 61
35 109 34 47 0 64 -6 108 -35 124 -83 208 -106 313 -87 71 12 116 32 200 88
45 29 61 35 109 34 47 0 64 -6 108 -35 115 -76 201 -103 296 -91 75 9 115 24
189 73 112 72 167 72 273 3 170 -111 302 -106 495 17 41 27 62 33 103 33 41 0
62 -6 103 -33 87 -56 139 -79 203 -90 104 -18 188 6 321 90 80 51 130 48 236
-17 151 -91 263 -104 317 -35 19 25 20 40 20 519 0 289 -4 503 -10 518 -13 34
-46 54 -110 66 -34 6 -78 26 -118 52 -84 55 -152 77 -232 77 -81 0 -148 -22
-236 -80 -62 -40 -74 -44 -129 -44 -46 0 -69 6 -98 24 l-38 23 38 26 c261 176
563 511 563 625 0 47 -34 85 -85 97 -22 5 -189 10 -371 10 l-331 0 -93 273
c-172 504 -169 496 -201 512 -23 13 -106 15 -508 15 l-480 0 -26 -22z m980
-453 c51 -148 97 -282 103 -297 l12 -28 -1165 0 c-641 0 -1165 3 -1165 7 0 4
16 47 36 95 l37 88 559 0 c599 0 612 1 638 50 7 12 32 93 56 179 25 86 47 162
49 169 4 10 84 12 376 10 l371 -3 93 -270z m815 -544 c0 -16 -186 -196 -271
-263 -144 -112 -278 -193 -340 -207 -31 -6 -83 -28 -115 -48 -149 -91 -186
-96 -285 -31 -112 72 -143 82 -249 83 -104 0 -157 -18 -257 -86 -34 -24 -61
-34 -98 -37 -56 -5 -80 5 -171 65 -98 65 -234 81 -334 40 -30 -13 -82 -40
-115 -61 -60 -39 -121 -54 -167 -43 -13 4 -58 28 -100 55 -160 101 -310 95
-475 -20 -42 -29 -56 -33 -113 -33 -60 0 -70 3 -135 46 -38 25 -86 51 -105 58
l-35 11 -29 218 c-15 119 -30 227 -33 240 l-5 22 1716 0 c983 0 1716 -4 1716
-9z m-3333 -713 c91 -58 156 -80 238 -81 86 -1 152 20 237 75 107 69 163 70
264 3 160 -107 303 -108 465 -3 74 47 88 52 136 52 43 -1 64 -8 106 -35 140
-89 219 -109 334 -85 55 11 92 28 154 68 74 47 88 52 136 52 43 -1 64 -8 106
-35 151 -96 246 -116 377 -77 19 6 71 33 114 61 68 43 87 50 132 51 43 0 61
-6 105 -34 133 -84 216 -107 323 -90 63 10 115 33 205 90 44 29 62 34 106 34
47 -1 64 -8 133 -52 44 -28 90 -54 104 -57 l25 -6 0 -355 c0 -195 -3 -354 -7
-354 -4 0 -33 16 -65 35 -68 41 -149 59 -225 52 -83 -9 -117 -22 -205 -77 -68
-43 -86 -50 -130 -50 -44 0 -62 7 -130 50 -100 63 -139 75 -245 74 -95 0 -131
-13 -239 -82 -97 -63 -153 -59 -270 21 -93 63 -227 83 -327 49 -29 -10 -82
-38 -119 -62 -52 -34 -79 -44 -119 -48 -57 -5 -80 4 -171 64 -138 92 -305 81
-462 -28 -42 -29 -56 -33 -113 -33 -61 0 -70 3 -137 48 -88 58 -172 82 -261
74 -71 -7 -118 -26 -218 -87 -63 -38 -74 -41 -125 -38 -46 3 -69 12 -120 46
-85 55 -128 72 -202 79 -81 7 -176 -17 -244 -62 l-53 -35 0 359 0 359 32 11
c17 6 64 31 102 55 108 67 153 68 253 4z"/>
</g>
</svg>
