<?xml version="1.0" standalone="no"?>
<!DOCTYPE svg PUBLIC "-//W3C//DTD SVG 20010904//EN"
 "http://www.w3.org/TR/2001/REC-SVG-20010904/DTD/svg10.dtd">
<svg version="1.0" xmlns="http://www.w3.org/2000/svg"
 width="640.000000pt" height="640.000000pt" viewBox="0 0 640.000000 640.000000"
 preserveAspectRatio="xMidYMid meet">

<g transform="translate(0.000000,640.000000) scale(0.100000,-0.100000)"
fill="#000000" stroke="none">
<path d="M4940 5209 c-61 -24 -60 -10 -60 -511 0 -252 -4 -458 -8 -458 -5 0
-37 37 -72 81 -169 215 -413 364 -710 435 -69 17 -154 18 -1074 21 -1102 4
-1064 6 -1266 -59 -416 -133 -732 -488 -827 -928 -28 -131 -25 -393 6 -520 64
-259 181 -462 367 -640 171 -164 369 -265 594 -305 110 -19 342 -19 452 0 217
38 424 135 590 277 l56 48 54 -46 c164 -141 378 -241 598 -280 136 -23 359
-15 495 19 283 72 513 223 687 453 22 30 44 54 49 54 13 0 11 -828 -2 -890
-12 -57 -52 -110 -103 -138 -28 -15 -93 -17 -709 -20 -466 -2 -683 1 -697 8
-19 10 -20 21 -20 191 0 272 17 258 -313 259 l-249 0 -29 -29 -29 -29 0 -299
c0 -245 3 -309 16 -354 53 -179 207 -325 379 -359 43 -8 300 -10 920 -8 763 3
866 6 913 20 249 77 445 269 522 513 l25 80 3 1677 2 1677 -29 33 -29 33 -239
2 c-142 1 -248 -2 -263 -8z m350 -674 l0 -475 -105 0 -105 0 0 475 0 475 105
0 105 0 0 -475z m-1358 35 c517 -49 909 -456 935 -971 7 -140 -7 -250 -48
-374 -130 -392 -461 -659 -875 -705 -176 -20 -370 14 -543 96 -115 54 -198
113 -282 198 -111 114 -143 113 -263 -2 -160 -154 -338 -246 -546 -283 -91
-16 -272 -16 -359 0 -388 73 -688 348 -809 741 -24 79 -26 98 -26 275 0 178 2
196 27 278 55 179 130 308 255 439 164 172 395 284 632 307 126 12 1774 13
1902 1z m1358 -955 l0 -235 -105 0 -105 0 0 235 0 235 105 0 105 0 0 -235z
m-2 -1127 c-3 -689 -3 -693 -25 -747 -79 -192 -250 -329 -443 -352 -53 -6
-382 -9 -875 -7 l-790 3 -51 23 c-64 29 -126 92 -156 157 -21 46 -23 66 -26
273 l-4 223 109 -3 108 -3 5 -145 c4 -126 8 -151 28 -188 25 -47 87 -97 141
-113 24 -7 271 -9 751 -7 713 3 715 3 770 25 67 27 147 95 188 160 61 95 62
105 62 773 0 334 3 610 7 613 3 4 51 7 105 7 l99 0 -3 -692z"/>
</g>
</svg>
