<?xml version="1.0" standalone="no"?>
<!DOCTYPE svg PUBLIC "-//W3C//DTD SVG 20010904//EN"
 "http://www.w3.org/TR/2001/REC-SVG-20010904/DTD/svg10.dtd">
<svg version="1.0" xmlns="http://www.w3.org/2000/svg"
 width="640.000000pt" height="640.000000pt" viewBox="0 0 640.000000 640.000000"
 preserveAspectRatio="xMidYMid meet">

<g transform="translate(0.000000,640.000000) scale(0.100000,-0.100000)"
fill="#000000" stroke="none">
<path d="M4559 5091 c-20 -20 -29 -39 -29 -62 0 -17 61 -259 135 -536 74 -277
135 -508 135 -512 0 -5 -30 -6 -68 -3 -221 15 -411 -137 -442 -355 -44 -311
277 -557 565 -433 137 59 237 192 252 334 8 79 -6 141 -161 716 -79 294 -143
536 -141 538 7 7 177 -72 214 -98 36 -27 72 -87 117 -197 27 -68 81 -90 142
-59 59 30 65 86 22 198 -33 88 -96 175 -161 223 -32 24 -113 66 -179 94 -123
52 -170 79 -249 145 -57 48 -109 50 -152 7z m226 -1336 c39 -16 84 -62 101
-102 22 -51 18 -133 -9 -184 -78 -147 -299 -138 -368 16 -79 174 95 344 276
270z"/>
<path d="M2375 4479 c-525 -142 -634 -174 -655 -195 l-25 -24 -3 -554 -2 -553
-61 24 c-71 29 -195 33 -270 10 -129 -40 -239 -157 -275 -292 -39 -147 6 -298
120 -402 67 -61 124 -89 213 -105 202 -34 387 80 459 286 12 33 15 129 14 523
l0 483 22 10 c26 11 991 270 1007 270 8 0 11 -75 11 -235 0 -129 -1 -235 -2
-235 -2 0 -25 9 -53 19 -156 59 -322 24 -440 -94 -162 -163 -163 -418 -2 -576
67 -66 141 -105 227 -118 226 -36 436 117 470 344 7 46 10 322 8 798 l-3 729
-33 29 c-22 20 -42 29 -65 28 -17 0 -315 -77 -662 -170z m553 -186 l-3 -118
-510 -136 c-280 -75 -513 -134 -517 -132 -12 7 -10 221 2 228 12 8 999 273
1018 274 10 1 12 -26 10 -116z m-103 -986 c95 -54 133 -182 83 -277 -36 -67
-94 -103 -171 -108 -51 -3 -70 1 -107 20 -123 66 -149 243 -48 334 64 59 170
72 243 31z m-1260 -326 c74 -33 125 -113 125 -196 0 -52 -44 -131 -89 -161
-77 -51 -182 -46 -250 12 -55 47 -73 85 -74 153 0 90 51 167 133 200 40 16
112 12 155 -8z"/>
<path d="M4115 2721 c-11 -5 -30 -19 -41 -32 -12 -13 -124 -202 -249 -419
-124 -217 -228 -396 -230 -398 -1 -2 -25 19 -52 46 -27 27 -80 64 -118 83 -63
31 -77 34 -155 33 -109 -1 -180 -27 -253 -94 -89 -81 -147 -224 -131 -320 25
-152 98 -250 233 -313 160 -75 363 -13 468 143 17 25 140 236 274 469 l243
424 19 -44 c58 -138 60 -193 8 -306 -30 -64 -32 -75 -22 -106 14 -42 28 -55
71 -67 23 -7 42 -5 66 5 29 12 41 28 74 97 73 153 72 243 -1 436 -45 117 -69
209 -69 264 0 68 -77 124 -135 99z m-765 -911 c56 -28 83 -72 88 -141 3 -45 0
-65 -17 -96 -56 -98 -187 -122 -269 -49 -154 137 14 380 198 286z"/>
</g>
</svg>
