<?xml version="1.0" standalone="no"?>
<!DOCTYPE svg PUBLIC "-//W3C//DTD SVG 20010904//EN"
 "http://www.w3.org/TR/2001/REC-SVG-20010904/DTD/svg10.dtd">
<svg version="1.0" xmlns="http://www.w3.org/2000/svg"
 width="640.000000pt" height="640.000000pt" viewBox="0 0 640.000000 640.000000"
 preserveAspectRatio="xMidYMid meet">

<g transform="translate(0.000000,640.000000) scale(0.100000,-0.100000)"
fill="#000000" stroke="none">
<path d="M2310 4486 l0 -195 -61 -32 c-116 -62 -180 -164 -187 -294 -3 -65 0
-91 19 -140 28 -74 102 -155 174 -190 l52 -26 7 -76 c19 -210 153 -454 321
-583 l56 -43 -3 -111 -3 -111 -85 -12 c-477 -67 -866 -393 -1020 -851 -52
-156 -60 -238 -60 -645 l0 -369 29 -29 29 -29 1622 0 1622 0 29 29 29 29 0
369 c0 409 -7 484 -61 645 -121 362 -388 643 -739 779 -98 38 -269 79 -329 79
l-31 0 0 118 0 117 56 44 c74 58 175 186 224 286 44 89 90 253 90 321 0 43 1
44 49 65 69 29 152 118 179 192 25 65 29 156 10 221 -26 91 -102 180 -191 222
l-37 18 0 198 c0 109 -3 198 -7 198 -5 0 -20 -17 -34 -38 -15 -20 -59 -74 -98
-119 l-71 -83 0 -132 c0 -183 5 -191 142 -222 73 -16 121 -102 99 -175 -14
-49 -69 -98 -118 -106 -104 -17 -118 -39 -126 -190 -7 -123 -23 -189 -72 -285
-170 -332 -572 -471 -908 -312 -176 83 -314 244 -371 432 -10 30 -20 105 -23
165 -8 149 -22 171 -123 191 -55 10 -89 35 -111 82 -34 70 -13 142 54 182 18
11 42 20 55 20 40 0 90 28 106 59 12 23 16 62 16 164 0 124 -2 135 -21 153
-12 10 -57 63 -100 117 l-79 98 0 -195z m673 -1713 c89 -25 347 -25 434 0 34
9 69 20 78 23 13 5 15 -7 15 -84 l0 -91 -151 -178 c-83 -98 -154 -178 -159
-178 -5 0 -77 80 -159 177 l-151 178 0 91 c0 78 2 90 15 85 9 -3 44 -13 78
-23z m-108 -449 c72 -85 138 -166 148 -179 l18 -23 -138 -83 c-76 -45 -148
-89 -160 -97 l-23 -14 0 276 c0 214 3 276 13 275 6 0 71 -70 142 -155z m805
-120 l0 -276 -22 14 c-13 8 -85 52 -161 97 l-138 83 18 23 c62 83 280 334 291
334 9 1 12 -61 12 -275z m-1150 -510 c52 -65 93 -61 232 22 l110 67 36 -36 35
-36 -37 -353 c-20 -194 -39 -365 -42 -381 l-6 -27 -329 0 -329 0 0 259 0 259
-29 31 c-40 43 -100 44 -142 2 l-29 -29 0 -261 0 -261 -140 0 -140 0 0 250 c0
138 5 294 11 347 45 403 314 743 693 874 l81 28 5 -368 c4 -307 8 -371 20
-387z m1557 681 c265 -128 465 -365 547 -648 38 -131 46 -218 46 -508 l0 -269
-140 0 -140 0 0 261 0 261 -29 29 c-42 42 -102 41 -142 -2 l-29 -31 0 -259 0
-259 -330 0 -329 0 -5 32 c-3 18 -22 190 -42 382 l-37 348 36 35 35 36 110
-67 c129 -77 162 -83 214 -37 l33 29 3 371 3 370 52 -15 c29 -9 93 -35 144
-59z m-812 -442 c36 -21 65 -41 65 -44 0 -3 -32 -40 -71 -82 l-70 -76 -70 76
c-38 42 -69 79 -69 82 1 9 123 80 138 81 7 0 42 -17 77 -37z m-66 -451 c20 3
43 7 50 9 12 3 20 -41 42 -246 16 -137 28 -260 28 -272 1 -23 -1 -23 -129 -23
-71 0 -130 3 -130 8 0 19 51 500 56 520 4 19 7 21 25 11 12 -6 38 -9 58 -7z"/>
<path d="M2864 3730 c-60 -24 -76 -85 -50 -191 26 -111 114 -215 224 -267 50
-24 69 -27 162 -27 99 0 110 2 172 33 128 63 213 187 225 327 5 55 3 64 -21
92 -31 37 -67 48 -111 33 -42 -14 -60 -41 -70 -105 -12 -83 -54 -139 -127
-169 -65 -28 -137 -14 -194 36 -43 38 -59 69 -69 132 -8 58 -26 89 -61 104
-29 14 -50 14 -80 2z"/>
</g>
</svg>
