<?xml version="1.0" standalone="no"?>
<!DOCTYPE svg PUBLIC "-//W3C//DTD SVG 20010904//EN"
 "http://www.w3.org/TR/2001/REC-SVG-20010904/DTD/svg10.dtd">
<svg version="1.0" xmlns="http://www.w3.org/2000/svg"
 width="640.000000pt" height="640.000000pt" viewBox="0 0 640.000000 640.000000"
 preserveAspectRatio="xMidYMid meet">

<g transform="translate(0.000000,640.000000) scale(0.100000,-0.100000)"
fill="#000000" stroke="none">
<path d="M1325 5489 c-94 -12 -162 -33 -237 -72 -162 -85 -212 -148 -172 -219
16 -28 55 -51 257 -153 130 -66 237 -122 237 -125 0 -3 -21 -14 -48 -24 -112
-45 -252 -159 -322 -261 -76 -111 -121 -241 -135 -387 -11 -120 25 -188 99
-188 20 1 131 51 304 139 149 76 272 136 272 134 0 -2 -24 -61 -54 -131 -168
-399 -288 -900 -312 -1303 l-7 -109 -111 0 c-127 0 -153 -9 -178 -60 -17 -33
-18 -95 -17 -880 0 -627 3 -854 12 -880 8 -24 23 -41 47 -52 33 -17 161 -18
2238 -18 1911 0 2207 2 2238 15 67 28 64 -11 64 945 l0 860 -29 32 -29 33
-1788 3 -1787 2 6 103 c14 226 67 541 132 793 34 128 118 393 134 422 6 10 24
-34 56 -134 147 -468 145 -463 177 -489 56 -47 104 -30 196 70 180 197 236
485 146 753 -13 41 -23 76 -21 79 2 2 116 -33 252 -78 275 -90 294 -92 340
-37 25 30 27 37 20 91 -28 249 -211 501 -432 593 -19 9 -32 18 -28 22 3 4 86
48 183 97 146 74 180 96 196 123 16 29 17 39 7 72 -20 67 -173 163 -319 201
-111 29 -270 29 -382 0 -177 -47 -355 -174 -437 -312 -9 -16 -20 -29 -23 -29
-3 0 -18 20 -33 44 -41 65 -156 169 -244 221 -92 54 -173 81 -285 95 -91 11
-84 11 -183 -1z m230 -214 c157 -41 303 -164 365 -308 43 -99 63 -105 -329 94
-199 101 -361 186 -361 190 0 6 48 21 105 33 48 10 166 5 220 -9z m1329 -7
l39 -14 -44 -26 c-126 -74 -410 -207 -464 -218 -33 -7 -89 -23 -124 -36 -35
-13 -68 -24 -73 -24 -14 0 47 106 88 154 66 77 169 141 277 171 64 18 244 14
301 -7z m-212 -459 c97 -20 194 -74 272 -152 40 -40 82 -92 93 -117 12 -25 20
-46 19 -47 -4 -5 -751 239 -760 247 -12 11 62 48 132 64 71 18 174 20 244 5z
m-868 -86 l39 -20 -274 -140 c-403 -207 -439 -224 -439 -212 0 24 46 118 86
175 76 108 194 185 329 214 69 15 215 6 259 -17z m229 -239 l18 -59 -40 -90
c-171 -389 -306 -936 -336 -1355 -3 -47 -8 -109 -11 -137 l-5 -53 -125 0 -125
0 6 68 c24 277 49 440 106 671 75 307 182 596 312 846 58 111 67 122 112 147
28 15 54 26 60 24 5 -1 18 -29 28 -62z m277 26 c39 -20 135 -117 167 -170 44
-72 74 -186 74 -278 -1 -110 -39 -257 -72 -277 -4 -3 -19 29 -33 72 -76 241
-209 660 -214 672 -6 16 22 9 78 -19z m28 -1949 c74 -38 122 -119 123 -206 1
-46 -7 -70 -47 -153 l-49 -97 0 -116 c0 -113 1 -117 37 -190 46 -94 122 -168
215 -212 l68 -31 210 -6 c193 -5 213 -7 245 -27 76 -47 110 -108 110 -198 0
-63 -22 -115 -67 -157 -64 -61 -10 -58 -1088 -58 l-985 0 0 735 0 735 595 0
c566 0 598 -1 633 -19z m2952 -716 l0 -735 -944 0 -944 0 26 63 c35 84 36 223
3 309 -29 74 -88 148 -156 192 -95 63 -119 69 -346 75 l-206 6 -49 30 c-38 24
-56 45 -81 94 -47 90 -45 133 11 247 83 167 85 261 11 437 -7 16 61 17 1334
17 l1341 0 0 -735z"/>
</g>
</svg>
