<?xml version="1.0" standalone="no"?>
<!DOCTYPE svg PUBLIC "-//W3C//DTD SVG 20010904//EN"
 "http://www.w3.org/TR/2001/REC-SVG-20010904/DTD/svg10.dtd">
<svg version="1.0" xmlns="http://www.w3.org/2000/svg"
 width="640.000000pt" height="640.000000pt" viewBox="0 0 640.000000 640.000000"
 preserveAspectRatio="xMidYMid meet">

<g transform="translate(0.000000,640.000000) scale(0.100000,-0.100000)"
fill="#000000" stroke="none">
<path d="M2317 4700 c-118 -20 -233 -114 -279 -228 -23 -56 -23 -62 -23 -452
0 -547 -7 -527 301 -840 l203 -205 -253 -340 c-139 -187 -257 -339 -262 -338
-5 1 -47 9 -93 18 -64 13 -116 16 -215 13 -113 -4 -144 -9 -223 -36 -51 -17
-118 -45 -150 -61 -87 -43 -143 -60 -244 -71 -50 -6 -104 -17 -121 -26 -58
-30 -58 -25 -58 -692 0 -409 4 -619 11 -640 23 -67 -175 -62 2289 -62 2464 0
2266 -5 2289 62 7 21 11 231 11 640 0 675 1 666 -62 692 -18 8 -58 17 -88 20
-113 14 -168 29 -270 76 -188 86 -230 95 -425 94 -160 0 -174 -2 -245 -28 -41
-15 -84 -30 -95 -32 -15 -4 -69 44 -234 210 l-214 214 39 7 c179 30 247 67
395 214 130 130 177 207 204 336 45 217 -13 414 -170 570 -124 125 -266 184
-437 185 -179 0 -322 -64 -468 -210 -135 -135 -197 -246 -216 -387 l-6 -52
-229 221 -229 222 0 291 c0 315 -7 368 -54 444 -58 91 -145 151 -251 170 -64
12 -60 12 -128 1z m146 -223 c77 -47 77 -44 77 -387 0 -168 3 -323 7 -345 5
-37 62 -96 775 -805 874 -868 807 -783 613 -783 -135 0 -176 9 -329 77 -173
77 -212 87 -361 93 -200 9 -228 2 -546 -133 -31 -13 -98 -29 -151 -35 -80 -10
-110 -9 -190 4 -106 18 -151 34 -144 52 4 11 281 386 465 630 118 157 128 132
-161 423 -196 197 -243 250 -265 298 l-28 59 -3 380 -3 381 23 34 c54 80 145
103 221 57z m1552 -699 c103 -25 208 -116 262 -226 26 -52 28 -66 28 -172 0
-105 -2 -120 -28 -174 -38 -82 -180 -227 -264 -268 -107 -52 -250 -54 -359 -4
-68 31 -169 132 -201 202 -52 114 -51 252 4 363 30 62 153 193 222 236 94 59
212 74 336 43z m-2094 -1674 c28 -9 99 -37 158 -64 171 -78 202 -85 386 -85
189 1 232 10 404 90 142 66 196 79 331 79 135 0 189 -13 331 -79 181 -84 208
-90 399 -90 189 0 219 7 392 85 159 73 203 84 343 83 141 0 170 -7 334 -80
131 -59 206 -83 259 -83 l32 0 0 -510 0 -510 -2090 0 -2090 0 0 510 0 510 28
0 c50 0 145 30 267 85 117 52 173 70 245 79 61 7 219 -5 271 -20z"/>
</g>
</svg>
